<svg width="367" height="219" viewBox="0 0 367 219" fill="none" xmlns="http://www.w3.org/2000/svg">
<g clip-path="url(#clip0_1_5)">
<path d="M280.453 216.524C275.763 212.561 272.915 206.301 273.662 200.207C274.409 194.113 279.036 188.51 285.038 187.216C291.04 185.922 297.881 189.504 299.704 195.367C300.708 184.064 301.864 172.287 307.873 162.661C313.315 153.945 322.74 147.708 332.954 146.592C343.169 145.476 353.923 149.69 360.294 157.753C366.664 165.815 368.224 177.536 363.762 186.792C360.475 193.61 354.42 198.685 348.076 202.813C327.574 216.041 302.985 221.42 278.834 217.961L280.453 216.524Z" fill="#F2F2F2"/>
<path d="M350.192 149.924C341.764 156.789 334.032 164.467 327.108 172.847C316.272 185.916 307.504 200.569 301.108 216.296C300.64 217.443 302.503 217.942 302.966 216.808C313.43 191.249 330.136 168.722 351.555 151.287C352.517 150.503 351.146 149.148 350.192 149.924Z" fill="white"/>
<path d="M117.92 215.447C124.361 210.004 128.274 201.406 127.248 193.035C126.221 184.665 119.866 176.97 111.623 175.193C103.379 173.415 93.9823 178.336 91.4785 186.388C90.1005 170.863 88.5126 154.687 80.2584 141.466C72.7844 129.495 59.8393 120.929 45.8098 119.396C31.7802 117.864 17.0089 123.652 8.25917 134.725C-0.490553 145.798 -2.63289 161.897 3.49519 174.61C8.00953 183.975 16.3265 190.945 25.0407 196.615C52.8418 214.705 87.3291 222.25 120.144 217.421" fill="#F2F2F2"/>
<path d="M22.1328 123.973C33.7089 133.402 44.3288 143.947 53.8389 155.457C63.3504 166.954 71.7243 179.348 78.8429 192.462C82.8219 199.819 86.3963 207.387 89.5502 215.134C90.1932 216.709 87.6344 217.395 86.9985 215.837C81.4122 202.18 74.5009 189.104 66.3637 176.795C58.266 164.531 48.9977 153.082 38.6891 142.607C32.8585 136.686 26.7068 131.09 20.2617 125.844C18.9406 124.768 20.8226 122.906 22.1328 123.973L22.1328 123.973Z" fill="white"/>
<path d="M262.941 218.52H109.26V60.8405C109.26 27.2929 136.553 0 170.101 0H202.1C235.648 0 262.941 27.2929 262.941 60.8405V218.52Z" fill="#F2F2F2"/>
<path d="M230.941 218.521H109.26V60.8406C109.227 47.9859 113.297 35.4561 120.879 25.0754C121.159 24.6945 121.438 24.3185 121.725 23.9466C125.392 19.1366 129.757 14.9006 134.674 11.3782C134.952 11.1761 135.23 10.9775 135.513 10.7789C139.628 7.9316 144.079 5.60396 148.765 3.849C149.043 3.74354 149.326 3.63786 149.609 3.5365C153.847 2.02415 158.24 0.9882 162.707 0.447772C162.984 0.409941 163.269 0.380338 163.553 0.350735C167.906 -0.114714 172.296 -0.114714 176.65 0.350735C176.933 0.380338 177.217 0.409938 177.498 0.448177C181.964 0.98864 186.355 2.02447 190.592 3.53652C190.876 3.63788 191.159 3.74355 191.438 3.84922C196.066 5.58205 200.464 7.87495 204.535 10.6768C204.818 10.871 205.101 11.0696 205.38 11.2682C208.136 13.2357 210.725 15.4275 213.12 17.8213C215.041 19.7415 216.831 21.7882 218.478 23.9478C218.764 24.3185 219.043 24.6945 219.322 25.0749C226.904 35.4556 230.975 47.9856 230.941 60.8406V218.521Z" fill="#CCCCCC"/>
<path d="M221.047 147.996C224.767 147.996 227.783 144.98 227.783 141.26C227.783 137.539 224.767 134.523 221.047 134.523C217.326 134.523 214.31 137.539 214.31 141.26C214.31 144.98 217.326 147.996 221.047 147.996Z" fill="#696CFF"/>
<path d="M250.351 213.798H245.189L242.733 193.887L250.352 193.888L250.351 213.798Z" fill="#FFB8B8"/>
<path d="M241.502 212.322H251.457V218.59H235.234C235.234 217.767 235.396 216.952 235.711 216.192C236.026 215.431 236.488 214.74 237.07 214.158C237.652 213.576 238.343 213.115 239.103 212.8C239.864 212.485 240.679 212.322 241.502 212.322Z" fill="#2F2E41"/>
<path d="M276.035 213.798H270.873L268.417 193.887L276.036 193.888L276.035 213.798Z" fill="#FFB8B8"/>
<path d="M267.185 212.322H277.14V218.59H260.917C260.917 217.767 261.08 216.952 261.395 216.192C261.71 215.431 262.171 214.74 262.753 214.158C263.335 213.576 264.026 213.115 264.787 212.8C265.547 212.485 266.362 212.322 267.185 212.322Z" fill="#2F2E41"/>
<path d="M224.456 142.594C224.085 142.047 223.838 141.425 223.733 140.772C223.628 140.119 223.667 139.451 223.848 138.815C224.029 138.179 224.348 137.591 224.781 137.091C225.214 136.592 225.751 136.193 226.355 135.923L243.903 87.5598L252.537 92.2718L232.502 138.49C232.887 139.534 232.876 140.684 232.471 141.721C232.065 142.758 231.294 143.61 230.302 144.115C229.31 144.621 228.167 144.746 227.09 144.466C226.013 144.185 225.075 143.519 224.456 142.594Z" fill="#FFB8B8"/>
<path d="M273.397 151.682C272.823 151.353 272.329 150.902 271.948 150.361C271.568 149.821 271.31 149.203 271.194 148.552C271.078 147.901 271.106 147.232 271.276 146.594C271.446 145.955 271.755 145.361 272.179 144.854L266.743 93.6932L276.569 94.1421L278.828 144.465C279.633 145.235 280.127 146.273 280.217 147.382C280.307 148.492 279.988 149.596 279.318 150.486C278.649 151.375 277.676 151.988 276.585 152.209C275.494 152.429 274.359 152.242 273.397 151.682Z" fill="#FFB8B8"/>
<path d="M257.722 78.6016C263.433 78.6016 268.063 73.9717 268.063 68.2604C268.063 62.5491 263.433 57.9192 257.722 57.9192C252.011 57.9192 247.381 62.5491 247.381 68.2604C247.381 73.9717 252.011 78.6016 257.722 78.6016Z" fill="#FFB8B8"/>
<path d="M273.332 140.046H242.155L242.193 139.804C242.249 139.441 247.749 103.409 243.692 91.6214C243.285 90.463 243.321 89.195 243.793 88.0614C244.264 86.9278 245.139 86.0087 246.248 85.4812H246.248C252.046 82.7506 263.177 79.3882 272.571 87.5481C273.954 88.7687 275.033 90.2941 275.724 92.0037C276.416 93.7134 276.7 95.5604 276.554 97.3988L273.332 140.046Z" fill="#696CFF"/>
<path d="M248.143 108.734L234.107 105.887L240.686 90.2955C241.08 88.7854 242.056 87.4932 243.402 86.7022C244.747 85.9111 246.351 85.686 247.862 86.0761C249.373 86.4662 250.668 87.4396 251.462 88.783C252.256 90.1263 252.485 91.7298 252.099 93.2418L248.143 108.734Z" fill="#696CFF"/>
<path d="M266.119 114.021L265.275 94.6783C264.636 91.0421 266.717 87.6047 269.918 87.0428C273.121 86.483 276.247 89.0049 276.89 92.6678L280.062 110.742L266.119 114.021Z" fill="#696CFF"/>
<path d="M272.294 137.731C277.311 156.836 277.858 181.127 276.505 207.624L269.768 206.781L257.558 156.257L250.821 207.624L243.243 207.203C240.978 179.401 238.774 155.534 242.4 139.836L272.294 137.731Z" fill="#2F2E41"/>
<path d="M264.536 76.2524C262.607 78.3074 259.024 77.2042 258.773 74.3968C258.753 74.1788 258.754 73.9595 258.777 73.7418C258.907 72.4982 259.625 71.3692 259.453 70.0561C259.414 69.7294 259.292 69.4179 259.099 69.1514C257.562 67.0928 253.953 70.0721 252.502 68.2085C251.613 67.0658 252.658 65.2666 251.976 63.9895C251.075 62.3038 248.406 63.1353 246.732 62.2122C244.87 61.1851 244.981 58.328 246.207 56.5901C247.702 54.4708 250.323 53.3399 252.912 53.1769C255.5 53.0139 258.07 53.7136 260.487 54.6554C263.233 55.7254 265.955 57.2042 267.645 59.6184C269.7 62.5544 269.897 66.5016 268.87 69.9347C268.245 72.0231 266.111 74.5743 264.536 76.2524Z" fill="#2F2E41"/>
<path d="M353.668 218.791H42.8148C42.6821 218.791 42.5549 218.738 42.4612 218.644C42.3675 218.55 42.3149 218.423 42.3149 218.29C42.3149 218.157 42.3675 218.03 42.4612 217.936C42.5549 217.842 42.6821 217.789 42.8148 217.789H353.668C353.8 217.789 353.927 217.842 354.021 217.936C354.115 218.03 354.167 218.157 354.167 218.29C354.167 218.423 354.115 218.55 354.021 218.644C353.927 218.738 353.8 218.791 353.668 218.791Z" fill="#3F3D56"/>
<path d="M197.469 172.838H142.733C142.012 172.842 141.319 172.559 140.806 172.053C140.293 171.547 140.002 170.857 139.996 170.137V47.9631C140.002 47.2422 140.293 46.553 140.806 46.0467C141.319 45.5403 142.012 45.2581 142.733 45.262H197.469C198.19 45.2581 198.883 45.5403 199.396 46.0467C199.909 46.553 200.2 47.2422 200.205 47.9631V170.137C200.2 170.857 199.909 171.547 199.396 172.053C198.883 172.559 198.19 172.842 197.469 172.838Z" fill="white"/>
<path d="M200.205 84.7933H139.996V85.6354H200.205V84.7933Z" fill="#CCCCCC"/>
<path d="M200.416 132.839H140.207V133.681H200.416V132.839Z" fill="#CCCCCC"/>
<path d="M159.785 45.262H158.943V173.259H159.785V45.262Z" fill="#CCCCCC"/>
<path d="M180.837 45.262H179.995V173.259H180.837V45.262Z" fill="#CCCCCC"/>
</g>
<defs>
<clipPath id="clip0_1_5">
<rect width="366.306" height="219" fill="white"/>
</clipPath>
</defs>
</svg>
