<svg width="333" height="200" viewBox="0 0 333 200" fill="none" xmlns="http://www.w3.org/2000/svg">
<g clip-path="url(#clip0_24_319)">
<path d="M17.3555 199.553C17.3332 199.455 15.181 189.641 19.5763 181.49C23.9716 173.339 33.3538 169.744 33.4481 169.709L33.8769 169.548L33.9782 169.995C34.0004 170.093 36.1526 179.907 31.7573 188.058C27.3622 196.209 17.9798 199.804 17.8855 199.839L17.4566 200L17.3555 199.553ZM33.2888 170.639C31.4095 171.447 23.9923 174.985 20.2801 181.869C16.5675 188.754 17.6876 196.896 18.0448 198.909C19.9233 198.103 27.3376 194.57 31.0535 187.679C34.7659 180.794 33.6462 172.653 33.2888 170.638V170.639Z" fill="#F1F1F1"/>
<path d="M28.3985 185.199C20.4999 189.951 17.4579 199.39 17.4579 199.39C17.4579 199.39 27.222 201.124 35.1206 196.372C43.0192 191.62 46.0612 182.181 46.0612 182.181C46.0612 182.181 36.2971 180.447 28.3985 185.199Z" fill="#F1F1F1"/>
<path d="M148.013 109.019C148.133 108.398 148.116 107.757 147.962 107.143C147.808 106.528 147.521 105.955 147.122 105.464C146.722 104.972 146.22 104.574 145.65 104.298C145.081 104.022 144.457 103.874 143.824 103.864L140.166 94.6658L134.034 95.5253L139.382 108.443C139.437 109.507 139.88 110.515 140.628 111.275C141.377 112.035 142.377 112.493 143.441 112.565C144.505 112.636 145.558 112.314 146.401 111.661C147.243 111.007 147.817 110.067 148.013 109.019Z" fill="#9F616A"/>
<path d="M136.716 105.787L134.816 101.257L122.975 78.7186L123.619 37.0154L123.743 36.999C131.319 35.998 136.445 70.9063 136.66 72.393L144.14 97.978L145.921 103.617L136.716 105.787Z" fill="#696CFF"/>
<path d="M118.523 193.725L124.28 193.725L127.018 171.52L118.522 171.521L118.523 193.725Z" fill="#9F616A"/>
<path d="M117.054 191.846L128.391 191.845H128.392C130.308 191.845 132.145 192.606 133.5 193.961C134.855 195.316 135.617 197.154 135.617 199.07V199.305L117.055 199.305L117.054 191.846Z" fill="#2F2E41"/>
<path d="M65.5912 184.954L70.3146 188.246L85.2568 171.594L78.2857 166.736L65.5912 184.954Z" fill="#9F616A"/>
<path d="M65.4612 182.573L74.7628 189.054L74.7632 189.055C76.3352 190.15 77.4076 191.825 77.7446 193.712C78.0815 195.598 77.6554 197.541 76.56 199.113L76.4258 199.305L61.1964 188.693L65.4612 182.573Z" fill="#2F2E41"/>
<path d="M115.359 188.506L115.11 146.852L111.488 120.66L104.735 143.693L104.722 143.712L80.2491 179.241L70.7266 174.416L70.7787 174.292C71.3607 172.908 85.0734 140.399 88.7592 140.399C89.0811 140.421 89.4037 140.365 89.6991 140.235C89.9945 140.106 90.2539 139.906 90.455 139.654C91.5368 138.209 90.6558 135.144 90.6468 135.113C89.5917 130.738 92.2446 129.248 92.773 128.999L94.1942 99.6609L94.3415 99.671L132.87 102.374L131.253 139.054L127.776 187.112L127.657 187.126L115.359 188.506Z" fill="#2F2E41"/>
<path d="M133.458 108.874L133.292 108.861L91.8556 105.521L91.9579 91.8105L93.986 56.0127L93.9975 55.9879L102.257 38.0572L108.111 35.4061L116.653 34.9565L116.674 34.9618L124.47 36.8931L132.579 95.1071L133.458 108.874Z" fill="#696CFF"/>
<path d="M117.992 30.3613C123.279 27.4712 125.222 20.8424 122.332 15.5555C119.442 10.2686 112.813 8.32562 107.526 11.2157C102.239 14.1058 100.296 20.7345 103.186 26.0214C106.076 31.3083 112.705 33.2513 117.992 30.3613Z" fill="#9F616A"/>
<path d="M101.787 23.527V19.2763C101.787 19.2763 98.3592 15.2391 102.13 14.2221C102.13 14.2221 103.158 4.05219 112.071 8.79814C112.071 8.79814 124.412 6.76417 123.04 13.8831C123.04 13.8831 126.125 12.0246 125.097 16.7705L123.108 24.4154C123.108 24.4154 124.069 19.3654 120.984 18.6874L119.27 17.6704C119.27 17.6704 114.471 22.4164 107.272 16.6534C107.272 16.6534 104.187 15.9171 104.53 18.9681C104.872 22.019 101.787 23.527 101.787 23.527Z" fill="#2F2E41"/>
<path d="M111.623 98.636C111.63 98.0027 111.498 97.3757 111.236 96.799C110.975 96.2223 110.59 95.71 110.109 95.2981C109.628 94.8863 109.062 94.5849 108.452 94.4153C107.842 94.2456 107.202 94.2119 106.577 94.3163L101.328 85.9236L95.45 87.8695L103.029 99.6175C103.274 100.655 103.891 101.567 104.763 102.18C105.636 102.793 106.703 103.065 107.762 102.944C108.821 102.823 109.8 102.318 110.511 101.524C111.223 100.73 111.618 99.7022 111.623 98.636Z" fill="#9F616A"/>
<path d="M98.0658 95.9904L88.5696 76.7103L88.578 76.6634C88.6162 76.4499 92.4388 55.2252 95.3624 47.4236C98.3045 39.5726 102.332 37.9963 102.502 37.9331L102.587 37.9014L106.198 41.365L101.196 74.7521L106.587 90.8542L98.0658 95.9904Z" fill="#696CFF"/>
<path d="M332.645 0H314.259V18.3869H332.645V0Z" fill="#F1F1F1"/>
<path d="M188.748 71.549H170.361V89.9359H188.748V71.549Z" fill="#F1F1F1"/>
<path d="M180.681 81.8787H326.047V8.28766H180.681V81.8787Z" fill="white"/>
<path d="M327.247 83.0779H179.482V7.0885H327.247V83.0779ZM181.88 80.6796H324.848V9.48679H181.88V80.6796Z" fill="#E5E5E5"/>
<path d="M309.973 34.1021H198.13V37.8111H309.973V34.1021Z" fill="#E5E5E5"/>
<path d="M309.973 43.0969H198.13V46.8059H309.973V43.0969Z" fill="#E5E5E5"/>
<path d="M309.972 56.378H289.187V59.5968H309.972V56.378Z" fill="#696CFF"/>
<path d="M152.691 199.984H0.399715C0.293704 199.984 0.192035 199.942 0.117074 199.867C0.0421124 199.792 0 199.69 0 199.584C0 199.478 0.0421124 199.376 0.117074 199.301C0.192035 199.226 0.293704 199.184 0.399715 199.184H152.691C152.797 199.184 152.899 199.226 152.974 199.301C153.049 199.376 153.091 199.478 153.091 199.584C153.091 199.69 153.049 199.792 152.974 199.867C152.899 199.942 152.797 199.984 152.691 199.984Z" fill="#CBCBCB"/>
</g>
<defs>
<clipPath id="clip0_24_319">
<rect width="332.645" height="200" fill="white"/>
</clipPath>
</defs>
</svg>
