<svg width="228" height="200" viewBox="0 0 228 200" fill="none" xmlns="http://www.w3.org/2000/svg">
<g clip-path="url(#clip0_24_629)">
<path d="M225.773 197.14C225.375 197.696 224.973 198.247 224.576 198.795C223.433 199.582 222.077 200.003 220.689 200H6.89648C5.57056 200.001 4.27274 199.618 3.16018 198.897C2.79094 198.41 2.42587 197.919 2.05664 197.428L2.42587 197.225L110.657 137.233C111.617 136.702 112.697 136.423 113.794 136.421C114.891 136.42 115.971 136.696 116.933 137.225L225.407 196.937L225.773 197.14Z" fill="#696CFF"/>
<path d="M220.69 70.994L126.889 16.8234C122.944 14.545 118.469 13.3444 113.913 13.3422C109.357 13.3399 104.881 14.5361 100.933 16.8106L6.89655 70.994C5.06827 70.9965 3.31561 71.724 2.02281 73.0168C0.73002 74.3096 0.00258637 76.0622 0 77.8905V193.104C0.00213015 194.932 0.729414 196.685 2.02231 197.978C3.3152 199.271 5.06813 199.998 6.89655 200H220.69C222.518 199.997 224.27 199.269 225.563 197.977C226.856 196.684 227.583 194.932 227.586 193.104V77.8905C227.584 76.0622 226.856 74.3096 225.563 73.0168C224.271 71.724 222.518 70.9965 220.69 70.994ZM226.775 193.104C226.771 194.716 226.129 196.262 224.988 197.402C223.848 198.542 222.302 199.185 220.69 199.189H6.89655C5.28355 199.186 3.73745 198.544 2.59688 197.403C1.45631 196.263 0.814261 194.717 0.811359 193.104V77.8905C0.813322 76.2772 1.45507 74.7306 2.59584 73.5898C3.73661 72.449 5.28326 71.8073 6.89655 71.8053L100.933 17.622C104.881 15.3474 109.357 14.1513 113.913 14.1535C118.469 14.1558 122.944 15.3563 126.889 17.6348L220.69 71.8053C222.303 71.8073 223.85 72.449 224.99 73.5898C226.131 74.7306 226.773 76.2772 226.775 77.8905V193.104Z" fill="#3F3D56"/>
<path d="M113.915 136.178C113.208 136.181 112.506 136.063 111.839 135.83L111.716 135.787L111.692 135.514C111.615 135.552 111.538 135.588 111.461 135.622L111.379 135.658L111.297 135.622C111.126 135.547 110.957 135.462 110.793 135.369L36.1055 93.4005V7.70789C36.1077 5.71811 36.8991 3.81046 38.3061 2.40347C39.7131 0.996481 41.6208 0.205053 43.6105 0.20282H183.976C185.965 0.205053 187.873 0.996481 189.28 2.40347C190.687 3.81046 191.478 5.71811 191.481 7.70789V93.5101L191.377 93.5683L117.037 135.369C116.082 135.902 115.007 136.18 113.915 136.178Z" fill="white"/>
<path d="M113.915 136.381C113.185 136.384 112.461 136.262 111.772 136.022L111.526 135.935L111.516 135.819L111.379 135.879L111.216 135.808C111.039 135.73 110.863 135.642 110.693 135.546L35.9026 93.5195V7.70791C35.9049 5.66436 36.7177 3.70517 38.1627 2.26015C39.6077 0.815139 41.5669 0.00231282 43.6105 0H183.976C186.019 0.00232139 187.978 0.815147 189.423 2.26016C190.868 3.70517 191.681 5.66436 191.684 7.70791V93.6288L117.136 135.546C116.151 136.096 115.042 136.383 113.915 136.381ZM112.287 135.336C113.778 135.764 115.378 135.586 116.739 134.839L190.872 93.1542V7.70791C190.87 5.87947 190.143 4.1265 188.85 2.83359C187.557 1.54068 185.804 0.813418 183.976 0.811359H43.6105C41.782 0.813409 40.0291 1.54067 38.7362 2.83358C37.4433 4.12649 36.716 5.87946 36.7139 7.70791V93.0445L41.5779 95.7761L111.091 134.839C111.186 134.892 111.282 134.943 111.379 134.99C111.477 134.943 111.573 134.893 111.667 134.839L112.213 134.532L112.287 135.336Z" fill="#3F3D56"/>
<path d="M225.789 73.9878L196.349 90.5396L191.278 93.3915L116.937 135.193C116.013 135.708 114.973 135.978 113.915 135.976C113.231 135.978 112.552 135.864 111.907 135.639C111.727 135.582 111.551 135.514 111.379 135.436C111.213 135.363 111.051 135.282 110.893 135.193L41.3793 96.1298L36.3083 93.282L1.85801 73.9229C1.76434 73.8692 1.69562 73.7808 1.66677 73.6767C1.63792 73.5727 1.65126 73.4614 1.7039 73.3672C1.75668 73.2736 1.84443 73.2049 1.94785 73.176C2.05128 73.1471 2.16195 73.1604 2.25557 73.213L36.3083 92.3489L41.3793 95.1968L111.29 134.483C111.522 134.613 111.763 134.726 112.012 134.82C112.118 134.86 112.227 134.897 112.337 134.929C113.031 135.142 113.762 135.213 114.484 135.136C115.206 135.059 115.905 134.837 116.54 134.483L191.278 92.4625L196.349 89.6106L225.391 73.282C225.438 73.2559 225.489 73.2391 225.542 73.2328C225.594 73.2264 225.648 73.2305 225.699 73.2448C225.75 73.2591 225.798 73.2834 225.84 73.3162C225.882 73.349 225.917 73.3898 225.943 73.4361C225.969 73.4825 225.986 73.5335 225.992 73.5863C225.999 73.6391 225.995 73.6927 225.98 73.7439C225.966 73.7951 225.942 73.8431 225.909 73.8849C225.876 73.9268 225.835 73.9617 225.789 73.9878Z" fill="#3F3D56"/>
<path d="M66.5617 26.7749H55.2027C54.342 26.7749 53.5165 26.4329 52.9078 25.8243C52.2992 25.2157 51.9573 24.3902 51.9573 23.5294C51.9573 22.6687 52.2992 21.8432 52.9078 21.2346C53.5165 20.6259 54.342 20.284 55.2027 20.284H66.5617C67.4225 20.284 68.248 20.6259 68.8566 21.2346C69.4653 21.8432 69.8072 22.6687 69.8072 23.5294C69.8072 24.3902 69.4653 25.2157 68.8566 25.8243C68.248 26.4329 67.4225 26.7749 66.5617 26.7749Z" fill="#696CFF"/>
<path d="M79.9492 37.7282H55.2027C54.342 37.7282 53.5165 37.3863 52.9078 36.7776C52.2992 36.169 51.9573 35.3435 51.9573 34.4827C51.9573 33.622 52.2992 32.7965 52.9078 32.1879C53.5165 31.5792 54.342 31.2373 55.2027 31.2373H79.9492C80.8099 31.2373 81.6354 31.5792 82.244 32.1879C82.8527 32.7965 83.1946 33.622 83.1946 34.4827C83.1946 35.3435 82.8527 36.169 82.244 36.7776C81.6354 37.3863 80.8099 37.7282 79.9492 37.7282Z" fill="#E6E6E6"/>
<path d="M149.087 66.9372H78.9046C78.0439 66.9372 77.2184 66.5952 76.6097 65.9866C76.0011 65.378 75.6592 64.5525 75.6592 63.6917C75.6592 62.831 76.0011 62.0055 76.6097 61.3969C77.2184 60.7882 78.0439 60.4463 78.9046 60.4463H149.087C149.948 60.4463 150.773 60.7882 151.382 61.3969C151.991 62.0055 152.333 62.831 152.333 63.6917C152.333 64.5525 151.991 65.378 151.382 65.9866C150.773 66.5952 149.948 66.9372 149.087 66.9372Z" fill="#696CFF"/>
<path d="M155.578 79.5131H72.0081C71.1474 79.5131 70.3219 79.1712 69.7133 78.5625C69.1046 77.9539 68.7627 77.1284 68.7627 76.2677C68.7627 75.4069 69.1046 74.5814 69.7133 73.9728C70.3219 73.3641 71.1474 73.0222 72.0081 73.0222H155.578C156.439 73.0222 157.264 73.3641 157.873 73.9728C158.482 74.5814 158.824 75.4069 158.824 76.2677C158.824 77.1284 158.482 77.9539 157.873 78.5625C157.264 79.1712 156.439 79.5131 155.578 79.5131Z" fill="#E6E6E6"/>
<path d="M155.578 91.6835H72.0081C71.1474 91.6835 70.3219 91.3416 69.7133 90.7329C69.1046 90.1243 68.7627 89.2988 68.7627 88.4381C68.7627 87.5773 69.1046 86.7518 69.7133 86.1432C70.3219 85.5346 71.1474 85.1926 72.0081 85.1926H155.578C156.439 85.1926 157.264 85.5346 157.873 86.1432C158.482 86.7518 158.824 87.5773 158.824 88.4381C158.824 89.2988 158.482 90.1243 157.873 90.7329C157.264 91.3416 156.439 91.6835 155.578 91.6835Z" fill="#E6E6E6"/>
</g>
<defs>
<clipPath id="clip0_24_629">
<rect width="227.586" height="200" fill="white"/>
</clipPath>
</defs>
</svg>
