<svg width="301" height="200" viewBox="0 0 301 200" fill="none" xmlns="http://www.w3.org/2000/svg">
<g clip-path="url(#clip0_24_519)">
<path d="M107.95 115.102C118.263 96.9592 137.937 83.0287 158.762 84.3707C143.401 101.076 134.443 122.676 133.474 145.35C133.132 154.096 133.662 163.859 127.855 170.407C124.242 174.482 118.72 176.456 113.29 176.87C107.859 177.284 102.43 176.302 97.0725 175.325L95.7728 175.724C95.278 154.861 97.6363 133.244 107.95 115.102Z" fill="#F0F0F0"/>
<path d="M158.793 84.8075C143.393 92.2213 130.261 104.603 122.2 119.704C120.457 122.968 118.974 126.432 118.326 130.094C117.679 133.757 118.131 137.245 119.382 140.724C120.526 143.905 122.065 147.027 122.416 150.431C122.785 154.018 121.465 157.373 119.089 160.035C116.182 163.293 112.277 165.312 108.39 167.153C104.075 169.197 99.5598 171.253 96.5031 175.068C96.1327 175.53 95.437 174.929 95.8068 174.467C101.125 167.829 110.228 166.581 116.541 161.233C119.486 158.738 121.698 155.339 121.558 151.358C121.436 147.876 119.852 144.656 118.666 141.445C117.421 138.073 116.8 134.683 117.246 131.089C117.703 127.412 119.055 123.883 120.706 120.588C124.431 113.157 129.529 106.335 135.369 100.438C142.08 93.659 149.902 88.0783 158.495 83.9371C159.027 83.681 159.322 84.5531 158.793 84.8075Z" fill="white"/>
<path d="M124.561 114.657C122.2 112.931 120.53 110.421 119.848 107.577C119.167 104.733 119.518 101.739 120.84 99.1301C121.11 98.6032 121.941 98.9969 121.672 99.5246C120.436 101.952 120.109 104.741 120.749 107.388C121.389 110.035 122.954 112.366 125.162 113.961C125.642 114.308 125.038 115.002 124.561 114.657Z" fill="white"/>
<path d="M118.59 139.188C124.506 138.323 129.879 135.261 133.637 130.611C134.009 130.15 134.705 130.752 134.333 131.212C130.413 136.044 124.815 139.219 118.657 140.105C118.07 140.189 118.006 139.271 118.59 139.188V139.188Z" fill="white"/>
<path d="M142.535 94.7908C143.309 95.6491 144.284 96.3016 145.373 96.6898C146.462 97.078 147.63 97.1897 148.773 97.0148C149.358 96.9234 149.422 97.8413 148.84 97.9321C147.577 98.1194 146.287 97.9945 145.083 97.5683C143.879 97.1421 142.798 96.4275 141.934 95.4871C141.845 95.4052 141.79 95.2927 141.782 95.1722C141.773 95.0517 141.81 94.9324 141.886 94.8384C141.966 94.7466 142.079 94.6902 142.201 94.6812C142.322 94.6723 142.442 94.7117 142.535 94.7908Z" fill="white"/>
<path d="M200.199 141.604C199.835 141.671 199.471 141.739 199.103 141.813C194.213 142.746 189.407 144.075 184.732 145.786C184.369 145.912 184.002 146.046 183.643 146.183C172.424 150.426 162.09 156.714 153.167 164.729C149.619 167.922 146.319 171.38 143.296 175.073C139.121 180.174 135 186.037 129.545 189.363C128.979 189.716 128.393 190.034 127.788 190.315L96.3602 177.279C96.3036 177.213 96.2437 177.155 96.1868 177.089L94.9082 176.626C95.0508 176.425 95.2031 176.219 95.3457 176.018C95.4279 175.901 95.5172 175.786 95.5994 175.669C95.6565 175.592 95.7139 175.515 95.761 175.442C95.7798 175.416 95.7991 175.391 95.815 175.372C95.8621 175.299 95.9135 175.236 95.9576 175.171C96.8055 174.018 97.6629 172.869 98.5298 171.725C98.5328 171.717 98.5328 171.717 98.5428 171.713C105.171 163.008 112.584 154.779 121.011 147.937C121.264 147.732 121.521 147.519 121.789 147.319C125.604 144.256 129.663 141.51 133.926 139.108C136.264 137.801 138.667 136.613 141.126 135.548C147.484 132.81 154.233 131.089 161.125 130.447C174.866 129.172 188.862 132.304 199.4 140.936C199.67 141.157 199.932 141.376 200.199 141.604Z" fill="#F0F0F0"/>
<path d="M199.963 141.973C183.203 138.621 165.263 140.601 149.735 147.804C146.378 149.362 143.108 151.234 140.387 153.768C137.664 156.303 135.926 159.36 134.83 162.892C133.828 166.121 133.177 169.539 131.408 172.468C129.543 175.555 126.469 177.439 122.969 178.134C118.686 178.985 114.353 178.246 110.141 177.376C105.465 176.41 100.622 175.332 95.8845 176.539C95.3105 176.685 95.1172 175.785 95.6904 175.639C103.934 173.541 111.953 178.025 120.213 177.556C124.067 177.337 127.879 175.955 130.165 172.692C132.164 169.839 132.838 166.314 133.824 163.036C134.86 159.594 136.405 156.514 138.925 153.912C141.504 151.252 144.708 149.248 148.01 147.611C155.458 143.921 163.636 141.543 171.849 140.35C181.289 138.979 190.894 139.232 200.249 141.099C200.828 141.215 200.538 142.089 199.963 141.973V141.973Z" fill="white"/>
<path d="M154.659 145.197C153.813 142.397 153.99 139.388 155.159 136.706C156.327 134.025 158.41 131.846 161.036 130.559C161.569 130.301 161.996 131.116 161.463 131.375C159.015 132.569 157.074 134.598 155.992 137.097C154.909 139.596 154.755 142.4 155.558 145.003C155.732 145.568 154.832 145.759 154.659 145.197Z" fill="white"/>
<path d="M135.122 161.188C140.366 164.059 146.5 164.849 152.3 163.399C152.875 163.255 153.068 164.154 152.494 164.298C146.456 165.796 140.074 164.961 134.624 161.961C134.104 161.674 134.606 160.903 135.122 161.188Z" fill="white"/>
<path d="M180.971 140.156C181.072 141.307 181.458 142.416 182.094 143.381C182.729 144.347 183.595 145.139 184.613 145.687C185.135 145.967 184.633 146.738 184.114 146.46C182.993 145.849 182.038 144.973 181.333 143.908C180.628 142.843 180.195 141.621 180.072 140.35C180.05 140.231 180.074 140.108 180.14 140.007C180.205 139.905 180.307 139.833 180.424 139.803C180.543 139.778 180.668 139.801 180.77 139.867C180.872 139.933 180.944 140.037 180.971 140.156Z" fill="white"/>
<path d="M140.331 163.111C135.929 141.829 130.428 134.734 130.428 134.734L128.326 133.104L125.798 131.14L125.81 130.888L125.211 130.684L125.07 130.575L124.839 130.398L124.802 130.438L124.724 130.519L113.286 126.631L98.7756 121.702L92.0562 112.968C90.9619 111.546 89.553 110.396 87.94 109.609C86.3269 108.822 84.5536 108.42 82.759 108.433L61.2996 108.592C58.398 108.613 55.6094 109.72 53.4821 111.693L39.3771 124.776L17.3989 135.273L17.3618 135.236L17.131 135.401L13.7352 137.024L13.8753 137.754L11.7735 139.27C11.7735 139.27 6.27173 145.873 1.87031 165.675C0.750636 170.713 0.199492 181.522 0.000559044 194.841C-0.00943335 195.515 0.114618 196.184 0.365496 196.809C0.616374 197.434 0.989076 198.004 1.46193 198.484C1.93478 198.964 2.49836 199.345 3.11988 199.605C3.7414 199.866 4.40847 200 5.08231 200H122.472V200H137.124C137.797 200 138.464 199.866 139.085 199.606C139.706 199.346 140.27 198.965 140.742 198.485C141.215 198.006 141.588 197.437 141.839 196.812C142.09 196.188 142.215 195.519 142.206 194.846C142.012 180.353 141.461 168.575 140.331 163.111Z" fill="#3F3D56"/>
<path d="M155.392 18.5592C150.825 18.5592 146.445 20.3735 143.216 23.603C139.986 26.8324 138.172 31.2125 138.172 35.7797C138.172 40.3469 139.986 44.727 143.216 47.9564C146.445 51.1859 150.825 53.0002 155.392 53.0002H283.726C288.293 53.0002 292.673 51.1859 295.903 47.9564C299.132 44.727 300.947 40.3469 300.947 35.7797C300.947 31.2125 299.132 26.8324 295.903 23.603C292.673 20.3735 288.293 18.5592 283.726 18.5592H155.392Z" fill="#E5E5E5"/>
<path d="M155.393 22.0443C151.75 22.0443 148.256 23.4914 145.68 26.0673C143.104 28.6432 141.657 32.1369 141.657 35.7797C141.657 39.4226 143.104 42.9162 145.68 45.4921C148.256 48.068 151.75 49.5151 155.393 49.5151H283.726C287.369 49.5151 290.863 48.068 293.439 45.4921C296.015 42.9162 297.462 39.4226 297.462 35.7797C297.462 32.1369 296.015 28.6432 293.439 26.0673C290.863 23.4914 287.369 22.0443 283.726 22.0443H155.393Z" fill="white"/>
<path d="M75.3991 100.371C90.926 100.371 103.513 87.7843 103.513 72.2574C103.513 56.7305 90.926 44.1435 75.3991 44.1435C59.8722 44.1435 47.2852 56.7305 47.2852 72.2574C47.2852 87.7843 59.8722 100.371 75.3991 100.371Z" fill="#9E616A"/>
<path d="M68.2071 98.9949C68.0869 98.7304 67.9671 98.465 67.8477 98.1987C67.8937 98.2001 67.9393 98.2068 67.9853 98.208L68.2071 98.9949Z" fill="#2F2E41"/>
<path d="M46.5033 45.4219C47.9252 44.2876 49.5871 43.2439 51.4051 43.3026C53.223 43.3612 55.0666 45.0031 54.69 46.7826C58.0292 40.8702 63.3443 36.3229 69.7022 33.9389C76.0601 31.5548 83.0546 31.4864 89.458 33.7456C93.9764 35.3397 98.4074 38.5289 99.4454 43.2065C99.7118 44.4072 99.769 45.7238 100.519 46.6989C101.464 47.9282 103.273 48.2063 104.762 47.7738C104.777 47.7695 104.792 47.7651 104.806 47.7607C105.058 47.6748 105.33 47.6664 105.586 47.7365C105.843 47.8066 106.072 47.952 106.245 48.154C106.418 48.356 106.526 48.6051 106.556 48.8693C106.585 49.1335 106.535 49.4005 106.412 49.6359L105.133 52.0202C106.745 52.3794 108.419 52.3438 110.014 51.9164C110.279 51.8469 110.559 51.8611 110.816 51.957C111.072 52.0529 111.293 52.2259 111.447 52.4521C111.601 52.6783 111.682 52.9468 111.678 53.2207C111.674 53.4945 111.585 53.7604 111.423 53.9818C107.208 59.7696 100.165 63.507 92.9778 63.4631C87.8696 63.4319 82.7088 61.6714 77.7374 62.8461C75.8142 63.3006 74.0171 64.1798 72.478 65.4194C70.9389 66.6589 69.6968 68.2274 68.8429 70.0096C67.989 71.7918 67.545 73.7425 67.5433 75.7187C67.5417 77.6949 67.9825 79.6464 68.8335 81.43C67.3062 79.7595 64.3539 80.155 62.7916 81.7929C61.2295 83.4308 60.825 85.8754 60.9825 88.1333C61.2231 91.5868 62.5762 94.8409 64.0027 98.0081C52.0433 97.6316 40.7317 89.2423 36.9242 77.8955C33.1008 66.5013 37.1079 52.9169 46.5033 45.4219Z" fill="#2F2E41"/>
<path opacity="0.2" d="M27.6714 156.685L35.5567 199.588L40.2881 200L27.6714 156.685Z" fill="black"/>
<path opacity="0.2" d="M114.53 153.45L106.644 199.557L101.913 200L114.53 153.45Z" fill="black"/>
<path d="M53.2289 30.9832C51.717 31.6145 50.1394 30.9226 49.4778 29.3382C48.8061 27.7295 49.4334 26.0965 50.9696 25.455C52.5059 24.8135 54.0554 25.5071 54.7379 27.1417C55.4103 28.7519 54.7897 30.3315 53.2289 30.9832ZM50.3328 22.2886L49.1306 22.7906C48.8303 22.9145 48.4944 22.9212 48.1894 22.8093C47.8844 22.6974 47.6325 22.4752 47.4835 22.1865L47.4241 22.0702C46.1306 19.7374 45.9825 16.9023 46.9862 13.648C47.9161 10.7287 48.3023 8.67558 47.5256 6.81557C46.6276 4.66504 44.7101 3.99138 42.2648 4.96725C41.3164 5.36326 41.0146 5.35695 40.2683 6.09734C40.1059 6.26034 39.9124 6.38899 39.6993 6.4756C39.4861 6.56222 39.2577 6.60502 39.0277 6.60146C38.8053 6.59884 38.5857 6.55147 38.3821 6.46216C38.1784 6.37286 37.9948 6.24345 37.8422 6.08166C37.5482 5.76986 37.3835 5.35813 37.3814 4.92961C37.3792 4.50109 37.5397 4.08772 37.8305 3.77297C39.085 2.45977 40.5981 1.42087 42.2742 0.721814C47.5281 -1.47202 50.1729 1.76686 51.3832 4.66535C52.5671 7.50041 51.9011 10.1309 50.8312 13.5376C49.9345 16.3683 49.9867 18.4659 51.0053 20.5515C51.0788 20.7092 51.1197 20.8801 51.1256 21.054C51.1314 21.2279 51.102 21.4011 51.0392 21.5634C50.9764 21.7256 50.8814 21.8735 50.76 21.9981C50.6387 22.1227 50.4933 22.2216 50.3328 22.2886L50.3328 22.2886Z" fill="#696CFF"/>
<path d="M183.74 43.9927H158.206C158.125 43.9933 158.045 43.9778 157.969 43.9471C157.894 43.9165 157.826 43.8713 157.769 43.8141C157.711 43.7569 157.665 43.6889 157.634 43.6141C157.603 43.5392 157.587 43.4588 157.587 43.3777C157.587 43.2966 157.603 43.2163 157.634 43.1414C157.665 43.0665 157.711 42.9985 157.769 42.9414C157.826 42.8842 157.894 42.839 157.969 42.8083C158.045 42.7777 158.125 42.7622 158.206 42.7627H183.74C183.902 42.7638 184.058 42.8291 184.172 42.9443C184.286 43.0595 184.351 43.2153 184.351 43.3777C184.351 43.5401 184.286 43.6959 184.172 43.8111C184.058 43.9264 183.902 43.9916 183.74 43.9927Z" fill="#696CFF"/>
<path d="M216.13 44.1977H190.597C190.516 44.1983 190.435 44.1828 190.36 44.1521C190.285 44.1214 190.217 44.0762 190.159 44.0191C190.102 43.9619 190.056 43.8939 190.025 43.819C189.994 43.7441 189.978 43.6638 189.978 43.5827C189.978 43.5016 189.994 43.4212 190.025 43.3464C190.056 43.2715 190.102 43.2035 190.159 43.1463C190.217 43.0891 190.285 43.0439 190.36 43.0133C190.435 42.9826 190.516 42.9671 190.597 42.9677H216.13C216.212 42.9671 216.292 42.9826 216.367 43.0133C216.442 43.0439 216.51 43.0891 216.568 43.1463C216.626 43.2035 216.671 43.2715 216.702 43.3464C216.734 43.4212 216.75 43.5016 216.75 43.5827C216.75 43.6638 216.734 43.7441 216.702 43.819C216.671 43.8939 216.626 43.9619 216.568 44.0191C216.51 44.0762 216.442 44.1214 216.367 44.1521C216.292 44.1828 216.212 44.1983 216.13 44.1977Z" fill="#696CFF"/>
<path d="M248.521 44.4027H222.988C222.825 44.4016 222.67 44.3363 222.556 44.2211C222.441 44.1059 222.377 43.9501 222.377 43.7877C222.377 43.6253 222.441 43.4695 222.556 43.3543C222.67 43.2391 222.825 43.1738 222.988 43.1727H248.521C248.603 43.1721 248.683 43.1876 248.758 43.2183C248.833 43.249 248.901 43.2942 248.959 43.3513C249.017 43.4085 249.062 43.4765 249.093 43.5514C249.125 43.6263 249.141 43.7066 249.141 43.7877C249.141 43.8688 249.125 43.9491 249.093 44.024C249.062 44.0989 249.017 44.1669 248.959 44.2241C248.901 44.2812 248.833 44.3264 248.758 44.3571C248.683 44.3878 248.603 44.4033 248.521 44.4027H248.521Z" fill="#696CFF"/>
<path d="M280.913 44.6078H255.379C255.217 44.6067 255.061 44.5414 254.947 44.4262C254.832 44.311 254.768 44.1552 254.768 43.9928C254.768 43.8304 254.832 43.6746 254.947 43.5593C255.061 43.4441 255.217 43.3789 255.379 43.3777H280.913C281.075 43.3789 281.23 43.4441 281.345 43.5593C281.459 43.6746 281.523 43.8304 281.523 43.9928C281.523 44.1552 281.459 44.311 281.345 44.4262C281.23 44.5414 281.075 44.6067 280.913 44.6078Z" fill="#696CFF"/>
<path d="M170.917 38.3327C173.537 38.3327 175.662 36.208 175.662 33.587C175.662 30.9661 173.537 28.8414 170.917 28.8414C168.296 28.8414 166.171 30.9661 166.171 33.587C166.171 36.208 168.296 38.3327 170.917 38.3327Z" fill="#696CFF"/>
<path d="M203.503 38.3327C206.124 38.3327 208.249 36.208 208.249 33.587C208.249 30.9661 206.124 28.8414 203.503 28.8414C200.882 28.8414 198.758 30.9661 198.758 33.587C198.758 36.208 200.882 38.3327 203.503 38.3327Z" fill="#696CFF"/>
<path d="M236.09 38.3327C238.711 38.3327 240.835 36.208 240.835 33.587C240.835 30.9661 238.711 28.8414 236.09 28.8414C233.469 28.8414 231.344 30.9661 231.344 33.587C231.344 36.208 233.469 38.3327 236.09 38.3327Z" fill="#696CFF"/>
<path d="M268.676 38.3327C271.297 38.3327 273.422 36.208 273.422 33.587C273.422 30.9661 271.297 28.8414 268.676 28.8414C266.055 28.8414 263.931 30.9661 263.931 33.587C263.931 36.208 266.055 38.3327 268.676 38.3327Z" fill="#696CFF"/>
</g>
<defs>
<clipPath id="clip0_24_519">
<rect width="300.947" height="200" fill="white"/>
</clipPath>
</defs>
</svg>
