<svg width="319" height="200" viewBox="0 0 319 200" fill="none" xmlns="http://www.w3.org/2000/svg">
<path d="M318.199 82.1419H317.661V67.4202C317.661 66.3013 317.441 65.1933 317.013 64.1596C316.584 63.1258 315.957 62.1865 315.166 61.3953C314.374 60.6041 313.435 59.9765 312.401 59.5483C311.368 59.1201 310.26 58.8997 309.141 58.8997H277.951C276.832 58.8997 275.724 59.1201 274.69 59.5483C273.656 59.9765 272.717 60.6041 271.926 61.3953C271.135 62.1865 270.507 63.1258 270.079 64.1596C269.651 65.1933 269.43 66.3013 269.43 67.4202V148.185C269.43 149.303 269.651 150.411 270.079 151.445C270.507 152.479 271.135 153.418 271.926 154.209C272.717 155.001 273.656 155.628 274.69 156.056C275.724 156.485 276.832 156.705 277.951 156.705H309.141C310.26 156.705 311.368 156.485 312.401 156.056C313.435 155.628 314.374 155.001 315.166 154.209C315.957 153.418 316.584 152.479 317.013 151.445C317.441 150.411 317.661 149.303 317.661 148.185V92.6211H318.199V82.1419Z" fill="#3F3D56"/>
<path d="M315.848 67.9209V148.568C315.848 150.256 315.177 151.874 313.984 153.068C312.791 154.261 311.172 154.932 309.484 154.932H278.144C277.309 154.932 276.481 154.767 275.709 154.447C274.938 154.127 274.236 153.658 273.646 153.067C273.055 152.476 272.586 151.775 272.267 151.003C271.947 150.231 271.783 149.403 271.783 148.568V67.9209C271.783 66.2338 272.453 64.6159 273.646 63.423C274.839 62.23 276.457 61.5598 278.144 61.5598H281.946C281.76 62.0188 281.689 62.5166 281.74 63.0094C281.791 63.5022 281.962 63.975 282.238 64.3862C282.515 64.7974 282.888 65.1344 283.325 65.3675C283.762 65.6007 284.25 65.7229 284.745 65.7234H302.614C303.11 65.7244 303.599 65.6031 304.037 65.3703C304.475 65.1375 304.848 64.8004 305.125 64.3888C305.402 63.9772 305.573 63.5038 305.623 63.0103C305.673 62.5169 305.601 62.0187 305.413 61.5598H309.484C311.171 61.5597 312.79 62.2298 313.983 63.4227C315.177 64.6155 315.847 66.2335 315.848 67.9209Z" fill="#D0CDE1"/>
<path d="M309.915 102.849H273.483V112.68H309.915V102.849Z" fill="#696CFF"/>
<path d="M311.361 110.945H276.086C275.856 110.945 275.635 110.853 275.473 110.691C275.31 110.528 275.219 110.307 275.218 110.077V101.403C275.219 101.173 275.31 100.953 275.473 100.79C275.635 100.628 275.856 100.536 276.086 100.536H311.361C311.591 100.536 311.811 100.628 311.974 100.79C312.136 100.953 312.228 101.173 312.228 101.403V110.077C312.228 110.307 312.136 110.528 311.974 110.691C311.811 110.853 311.591 110.945 311.361 110.945ZM276.086 101.114C276.009 101.114 275.936 101.145 275.881 101.199C275.827 101.253 275.797 101.327 275.797 101.403V110.077C275.797 110.154 275.827 110.228 275.881 110.282C275.935 110.336 276.009 110.367 276.086 110.367H311.361C311.437 110.367 311.511 110.336 311.565 110.282C311.619 110.228 311.65 110.154 311.65 110.077V101.403C311.65 101.327 311.619 101.253 311.565 101.199C311.511 101.145 311.437 101.114 311.361 101.114H276.086Z" fill="#3F3D56"/>
<path d="M282.157 108.343H277.531V108.921H282.157V108.343Z" fill="#3F3D56"/>
<path d="M288.518 108.343H283.892V108.921H288.518V108.343Z" fill="#3F3D56"/>
<path d="M294.88 108.343H290.253V108.921H294.88V108.343Z" fill="#3F3D56"/>
<path d="M301.24 108.343H296.614V108.921H301.24V108.343Z" fill="#3F3D56"/>
<path d="M307.602 108.343H302.976V108.921H307.602V108.343Z" fill="#3F3D56"/>
<path opacity="0.1" d="M315.848 140.368V148.568C315.848 150.256 315.177 151.874 313.984 153.068C312.791 154.261 311.172 154.932 309.484 154.932H278.144C277.309 154.932 276.481 154.767 275.709 154.447C274.938 154.127 274.236 153.658 273.646 153.067C273.055 152.476 272.586 151.775 272.267 151.003C271.947 150.231 271.783 149.403 271.783 148.568V110.847L315.848 140.368Z" fill="black"/>
<path d="M165.634 132.92H28.8711V200H165.634V132.92Z" fill="#D0CDE1"/>
<path opacity="0.1" d="M130.865 200H29.4494C29.2961 200 29.1493 199.939 29.041 199.83C28.9326 199.722 28.8715 199.575 28.8711 199.422V133.498C28.8715 133.345 28.9326 133.198 29.041 133.09C29.1493 132.981 29.2961 132.92 29.4494 132.92H30.7332L130.865 200Z" fill="black"/>
<path d="M304.132 141.883H92.1929V142.461H304.132V141.883Z" fill="#3F3D56"/>
<path d="M159.198 1.24844H98.6266V0H71.1609V1.24844H10.3394C9.80136 1.24843 9.26857 1.35441 8.77147 1.56032C8.27437 1.76622 7.8227 2.06802 7.44224 2.44848C7.06177 2.82895 6.75997 3.28062 6.55407 3.77772C6.34816 4.27482 6.24219 4.80761 6.24219 5.34566V88.2871C6.24219 89.3737 6.67386 90.4159 7.44224 91.1843C8.21061 91.9527 9.25276 92.3843 10.3394 92.3843H159.198C160.285 92.3843 161.327 91.9527 162.096 91.1843C162.864 90.4159 163.296 89.3737 163.296 88.2871V5.34566C163.296 4.80761 163.19 4.27482 162.984 3.77772C162.778 3.28062 162.476 2.82895 162.096 2.44848C161.715 2.06802 161.263 1.76622 160.766 1.56032C160.269 1.35441 159.736 1.24843 159.198 1.24844Z" fill="#3F3D56"/>
<path d="M157.801 8.48822H11.7363V90.8873H157.801V8.48822Z" fill="#D0CDE1"/>
<path d="M84.6441 6.24216C85.4715 6.24216 86.1422 5.57143 86.1422 4.74404C86.1422 3.91664 85.4715 3.24591 84.6441 3.24591C83.8167 3.24591 83.146 3.91664 83.146 4.74404C83.146 5.57143 83.8167 6.24216 84.6441 6.24216Z" fill="#696CFF"/>
<path d="M55.1828 39.2383H51.7131C51.4831 39.238 51.2627 39.1465 51.1 38.9839C50.9374 38.8213 50.846 38.6008 50.8457 38.3708V34.9012C50.846 34.6712 50.9374 34.4507 51.1 34.2881C51.2627 34.1255 51.4831 34.034 51.7131 34.0338H55.1828C55.4128 34.034 55.6333 34.1255 55.7959 34.2881C55.9585 34.4507 56.05 34.6712 56.0502 34.9012V38.3708C56.05 38.6008 55.9585 38.8213 55.7959 38.9839C55.6333 39.1465 55.4128 39.238 55.1828 39.2383ZM51.7131 34.612C51.6365 34.6121 51.563 34.6426 51.5088 34.6968C51.4546 34.751 51.4241 34.8245 51.424 34.9012V38.3708C51.4241 38.4475 51.4546 38.521 51.5088 38.5752C51.563 38.6294 51.6365 38.6599 51.7131 38.66H55.1828C55.2595 38.6599 55.3329 38.6294 55.3871 38.5752C55.4413 38.521 55.4718 38.4475 55.4719 38.3708V34.9012C55.4718 34.8245 55.4413 34.751 55.3871 34.6968C55.3329 34.6426 55.2595 34.6121 55.1828 34.612H51.7131Z" fill="#3F3D56"/>
<path d="M117.059 38.66H51.1348V39.2383H117.059V38.66Z" fill="#3F3D56"/>
<path d="M115.324 54.5627H99.9995V59.1889H115.324V54.5627Z" fill="#696CFF"/>
<path d="M116.48 58.0323H102.312C102.082 58.0321 101.862 57.9406 101.699 57.778C101.537 57.6154 101.445 57.3949 101.445 57.1649V53.6952C101.445 53.4653 101.537 53.2448 101.699 53.0822C101.862 52.9195 102.082 52.8281 102.312 52.8278H116.48C116.71 52.8281 116.931 52.9195 117.093 53.0822C117.256 53.2448 117.347 53.4653 117.348 53.6952V57.1649C117.347 57.3949 117.256 57.6154 117.093 57.778C116.931 57.9406 116.71 58.0321 116.48 58.0323ZM102.312 53.4061C102.236 53.4062 102.162 53.4367 102.108 53.4909C102.054 53.5451 102.023 53.6186 102.023 53.6952V57.1649C102.023 57.2416 102.054 57.3151 102.108 57.3693C102.162 57.4235 102.236 57.454 102.312 57.4541H116.48C116.557 57.454 116.63 57.4235 116.684 57.3693C116.739 57.3151 116.769 57.2416 116.769 57.1649V53.6952C116.769 53.6186 116.739 53.5451 116.684 53.4909C116.63 53.4367 116.557 53.4062 116.48 53.4061H102.312Z" fill="#3F3D56"/>
<path d="M232.426 59.7672H203.512V80.0069H232.426V59.7672Z" fill="#696CFF"/>
<path d="M235.317 78.4167H207.559C207.253 78.4163 206.959 78.2944 206.742 78.0776C206.525 77.8607 206.403 77.5668 206.403 77.2601V58.1769C206.403 57.8702 206.525 57.5763 206.742 57.3594C206.959 57.1426 207.253 57.0207 207.559 57.0203H235.317C235.623 57.0207 235.917 57.1426 236.134 57.3594C236.351 57.5763 236.473 57.8702 236.473 58.1769V77.2601C236.473 77.5668 236.351 77.8607 236.134 78.0776C235.917 78.2944 235.623 78.4163 235.317 78.4167ZM207.559 58.1769V77.2601H235.318L235.317 58.1769H207.559Z" fill="#3F3D56"/>
<path d="M232.136 57.454H230.98C230.98 54.9234 229.974 52.4965 228.185 50.7071C226.395 48.9177 223.969 47.9124 221.438 47.9124C218.907 47.9124 216.48 48.9177 214.691 50.7071C212.902 52.4965 211.896 54.9234 211.896 57.454H210.74C210.74 54.6167 211.867 51.8956 213.873 49.8893C215.879 47.883 218.601 46.7559 221.438 46.7559C224.275 46.7559 226.996 47.883 229.003 49.8893C231.009 51.8956 232.136 54.6167 232.136 57.454Z" fill="#3F3D56"/>
<path d="M224.33 65.4053C224.33 64.9018 224.199 64.4069 223.95 63.9696C223.701 63.5322 223.341 63.1675 222.908 62.9117C222.474 62.6558 221.981 62.5177 221.478 62.5108C220.974 62.504 220.478 62.6287 220.037 62.8727C219.597 63.1167 219.228 63.4715 218.966 63.9019C218.705 64.3324 218.561 64.8236 218.548 65.3269C218.535 65.8302 218.653 66.3282 218.892 66.7717C219.13 67.2151 219.48 67.5886 219.908 67.8551V70.9585C219.908 71.1596 219.947 71.3586 220.024 71.5443C220.101 71.73 220.214 71.8988 220.356 72.0409C220.498 72.1831 220.667 72.2958 220.853 72.3728C221.038 72.4497 221.237 72.4893 221.438 72.4893C221.844 72.4893 222.234 72.328 222.521 72.0409C222.808 71.7539 222.969 71.3645 222.969 70.9585V67.8551C223.385 67.5959 223.729 67.235 223.967 66.8064C224.205 66.3778 224.33 65.8956 224.33 65.4053Z" fill="#3F3D56"/>
<path d="M86.8435 162.701H82.2173V163.279H86.8435V162.701Z" fill="#3F3D56"/>
<path d="M93.2044 162.701H88.5781V163.279H93.2044V162.701Z" fill="#3F3D56"/>
<path d="M99.5657 162.701H94.9395V163.279H99.5657V162.701Z" fill="#3F3D56"/>
<path d="M105.927 162.701H101.301V163.279H105.927V162.701Z" fill="#3F3D56"/>
<path d="M112.288 162.701H107.662V163.279H112.288V162.701Z" fill="#3F3D56"/>
<path d="M171.706 195.085H36.0994C35.7928 195.084 35.4988 194.962 35.282 194.746C35.0652 194.529 34.9432 194.235 34.9429 193.928V128.004C34.9432 127.698 35.0652 127.404 35.282 127.187C35.4988 126.97 35.7928 126.848 36.0994 126.848H171.706C172.012 126.848 172.306 126.97 172.523 127.187C172.74 127.404 172.862 127.698 172.862 128.004V193.928C172.862 194.235 172.74 194.529 172.523 194.746C172.306 194.962 172.012 195.084 171.706 195.085ZM36.0994 128.004V193.928H171.707L171.706 128.004H36.0994Z" fill="#3F3D56"/>
<path d="M42.1714 137.835C43.1295 137.835 43.9062 137.058 43.9062 136.1C43.9062 135.142 43.1295 134.365 42.1714 134.365C41.2132 134.365 40.4365 135.142 40.4365 136.1C40.4365 137.058 41.2132 137.835 42.1714 137.835Z" fill="#3F3D56"/>
<path d="M48.2431 137.835C49.2013 137.835 49.978 137.058 49.978 136.1C49.978 135.142 49.2013 134.365 48.2431 134.365C47.285 134.365 46.5083 135.142 46.5083 136.1C46.5083 137.058 47.285 137.835 48.2431 137.835Z" fill="#3F3D56"/>
<path d="M54.3154 137.835C55.2735 137.835 56.0502 137.058 56.0502 136.1C56.0502 135.142 55.2735 134.365 54.3154 134.365C53.3573 134.365 52.5806 135.142 52.5806 136.1C52.5806 137.058 53.3573 137.835 54.3154 137.835Z" fill="#3F3D56"/>
<path d="M116.769 166.749H77.7356C77.5056 166.749 77.2851 166.657 77.1225 166.495C76.9599 166.332 76.8684 166.111 76.8682 165.882V156.051C76.8684 155.821 76.9599 155.6 77.1225 155.438C77.2851 155.275 77.5056 155.184 77.7356 155.183H116.769C116.999 155.184 117.22 155.275 117.383 155.438C117.545 155.6 117.637 155.821 117.637 156.051V165.882C117.637 166.111 117.545 166.332 117.383 166.495C117.22 166.657 116.999 166.749 116.769 166.749ZM77.7356 155.762C77.6589 155.762 77.5854 155.792 77.5312 155.846C77.477 155.901 77.4465 155.974 77.4464 156.051V165.882C77.4465 165.958 77.477 166.032 77.5312 166.086C77.5854 166.14 77.6589 166.171 77.7356 166.171H116.769C116.846 166.171 116.92 166.14 116.974 166.086C117.028 166.032 117.059 165.958 117.059 165.882V156.051C117.059 155.974 117.028 155.901 116.974 155.846C116.92 155.792 116.846 155.762 116.769 155.762H77.7356Z" fill="#3F3D56"/>
<path d="M126.6 167.038C129.474 167.038 131.805 164.708 131.805 161.834C131.805 158.959 129.474 156.629 126.6 156.629C123.726 156.629 121.396 158.959 121.396 161.834C121.396 164.708 123.726 167.038 126.6 167.038Z" fill="#696CFF"/>
<path d="M128.335 166.46C127.248 166.46 126.186 166.138 125.283 165.534C124.379 164.93 123.675 164.072 123.259 163.069C122.844 162.065 122.735 160.96 122.947 159.894C123.159 158.829 123.682 157.85 124.45 157.082C125.219 156.313 126.198 155.79 127.263 155.578C128.329 155.366 129.433 155.475 130.437 155.891C131.441 156.307 132.299 157.011 132.903 157.914C133.506 158.817 133.829 159.88 133.829 160.966C133.827 162.423 133.248 163.819 132.218 164.849C131.188 165.879 129.791 166.458 128.335 166.46ZM128.335 156.051C127.363 156.051 126.412 156.339 125.604 156.879C124.796 157.419 124.166 158.187 123.794 159.085C123.422 159.983 123.324 160.972 123.514 161.925C123.704 162.879 124.172 163.754 124.859 164.442C125.547 165.129 126.423 165.597 127.376 165.787C128.33 165.977 129.318 165.879 130.216 165.507C131.114 165.135 131.882 164.505 132.422 163.697C132.962 162.889 133.25 161.938 133.25 160.966C133.249 159.663 132.731 158.414 131.809 157.492C130.888 156.571 129.638 156.052 128.335 156.051Z" fill="#3F3D56"/>
<path d="M128.412 163.018L125.613 160.218L126.43 159.401L128.258 161.228L133.356 153.983L134.301 154.649L128.412 163.018Z" fill="#3F3D56"/>
<path opacity="0.1" d="M125.417 90.8873H11.7363V14.7308L125.417 90.8873Z" fill="black"/>
<path d="M167.397 89.3881H153.142V88.361C153.142 88.3343 153.136 88.3078 153.126 88.2831C153.116 88.2584 153.101 88.2359 153.082 88.217C153.063 88.1981 153.041 88.1831 153.016 88.1729C152.991 88.1626 152.965 88.1573 152.938 88.1573H148.05C148.024 88.1573 147.997 88.1626 147.973 88.1729C147.948 88.1831 147.925 88.1981 147.906 88.217C147.888 88.2359 147.873 88.2584 147.862 88.2831C147.852 88.3078 147.847 88.3343 147.847 88.361V89.3881H144.792V88.361C144.792 88.3343 144.787 88.3078 144.777 88.2831C144.766 88.2584 144.751 88.2359 144.732 88.217C144.714 88.1981 144.691 88.1831 144.666 88.1729C144.642 88.1626 144.615 88.1573 144.589 88.1573H139.701C139.674 88.1573 139.648 88.1626 139.623 88.1729C139.598 88.1831 139.576 88.1981 139.557 88.217C139.538 88.2359 139.523 88.2584 139.513 88.2831C139.503 88.3078 139.497 88.3343 139.497 88.361V89.3881H136.443V88.361C136.443 88.3343 136.437 88.3078 136.427 88.2831C136.417 88.2584 136.402 88.2359 136.383 88.217C136.364 88.1981 136.342 88.1831 136.317 88.1729C136.292 88.1626 136.266 88.1573 136.239 88.1573H131.352C131.325 88.1573 131.298 88.1626 131.274 88.1729C131.249 88.1831 131.226 88.1981 131.208 88.217C131.189 88.2359 131.174 88.2584 131.163 88.2831C131.153 88.3078 131.148 88.3343 131.148 88.361V89.3881H128.093V88.361C128.093 88.3343 128.088 88.3078 128.078 88.2831C128.067 88.2584 128.052 88.2359 128.034 88.217C128.015 88.1981 127.992 88.1831 127.967 88.1729C127.943 88.1626 127.916 88.1573 127.89 88.1573H123.002C122.975 88.1573 122.949 88.1626 122.924 88.1729C122.899 88.1831 122.877 88.1981 122.858 88.217C122.839 88.2359 122.824 88.2584 122.814 88.2831C122.804 88.3078 122.798 88.3343 122.798 88.361V89.3881H119.744V88.361C119.744 88.3343 119.738 88.3078 119.728 88.2831C119.718 88.2584 119.703 88.2359 119.684 88.217C119.665 88.1981 119.643 88.1831 119.618 88.1729C119.593 88.1626 119.567 88.1573 119.54 88.1573H114.653C114.626 88.1573 114.599 88.1626 114.575 88.1729C114.55 88.1831 114.527 88.1981 114.509 88.217C114.49 88.2359 114.475 88.2584 114.464 88.2831C114.454 88.3078 114.449 88.3343 114.449 88.361V89.3881H111.394V88.361C111.394 88.3343 111.389 88.3078 111.379 88.2831C111.368 88.2584 111.354 88.2359 111.335 88.217C111.316 88.1981 111.293 88.1831 111.269 88.1729C111.244 88.1626 111.217 88.1573 111.191 88.1573H106.303C106.276 88.1573 106.25 88.1626 106.225 88.1729C106.2 88.1831 106.178 88.1981 106.159 88.217C106.14 88.2359 106.125 88.2584 106.115 88.2831C106.105 88.3078 106.099 88.3343 106.099 88.361V89.3881H103.045V88.361C103.045 88.3343 103.039 88.3078 103.029 88.2831C103.019 88.2584 103.004 88.2359 102.985 88.217C102.966 88.1981 102.944 88.1831 102.919 88.1729C102.894 88.1626 102.868 88.1573 102.841 88.1573H64.5557C64.529 88.1573 64.5025 88.1626 64.4778 88.1729C64.4531 88.1831 64.4306 88.1981 64.4117 88.217C64.3928 88.2359 64.3778 88.2584 64.3676 88.2831C64.3573 88.3078 64.3521 88.3343 64.3521 88.361V89.3881H61.2974V88.361C61.2974 88.3343 61.2921 88.3078 61.2819 88.2831C61.2716 88.2584 61.2566 88.2359 61.2377 88.217C61.2188 88.1981 61.1964 88.1831 61.1717 88.1729C61.1469 88.1626 61.1205 88.1573 61.0937 88.1573H56.2062C56.1795 88.1573 56.153 88.1626 56.1283 88.1729C56.1036 88.1831 56.0811 88.1981 56.0622 88.217C56.0433 88.2359 56.0283 88.2584 56.0181 88.2831C56.0079 88.3078 56.0026 88.3343 56.0026 88.361V89.3881H52.9479V88.361C52.9479 88.3343 52.9426 88.3078 52.9324 88.2831C52.9222 88.2584 52.9072 88.2359 52.8883 88.217C52.8693 88.1981 52.8469 88.1831 52.8222 88.1729C52.7975 88.1626 52.771 88.1573 52.7443 88.1573H47.8568C47.83 88.1573 47.8035 88.1626 47.7788 88.1729C47.7541 88.1831 47.7317 88.1981 47.7128 88.217C47.6938 88.2359 47.6788 88.2584 47.6686 88.2831C47.6584 88.3078 47.6531 88.3343 47.6531 88.361V89.3881H44.5984V88.361C44.5984 88.3343 44.5932 88.3078 44.5829 88.2831C44.5727 88.2584 44.5577 88.2359 44.5388 88.217C44.5199 88.1981 44.4974 88.1831 44.4727 88.1729C44.448 88.1626 44.4215 88.1573 44.3948 88.1573H39.5073C39.4805 88.1573 39.4541 88.1626 39.4294 88.1729C39.4046 88.1831 39.3822 88.1981 39.3633 88.217C39.3444 88.2359 39.3294 88.2584 39.3191 88.2831C39.3089 88.3078 39.3036 88.3343 39.3036 88.361V89.3881H36.2489V88.361C36.2489 88.3343 36.2437 88.3078 36.2334 88.2831C36.2232 88.2584 36.2082 88.2359 36.1893 88.217C36.1704 88.1981 36.1479 88.1831 36.1232 88.1729C36.0985 88.1626 36.072 88.1573 36.0453 88.1573H31.1578C31.1311 88.1573 31.1046 88.1626 31.0799 88.1729C31.0552 88.1831 31.0327 88.1981 31.0138 88.217C30.9949 88.2359 30.9799 88.2584 30.9696 88.2831C30.9594 88.3078 30.9541 88.3343 30.9541 88.361V89.3881H27.8995V88.361C27.8995 88.3343 27.8942 88.3078 27.884 88.2831C27.8737 88.2584 27.8587 88.2359 27.8398 88.217C27.8209 88.1981 27.7985 88.1831 27.7738 88.1729C27.7491 88.1626 27.7226 88.1573 27.6958 88.1573H22.8083C22.7816 88.1573 22.7551 88.1626 22.7304 88.1729C22.7057 88.1831 22.6832 88.1981 22.6643 88.217C22.6454 88.2359 22.6304 88.2584 22.6202 88.2831C22.6099 88.3078 22.6047 88.3343 22.6047 88.361V89.3881H19.55V88.361C19.55 88.3343 19.5447 88.3078 19.5345 88.2831C19.5243 88.2584 19.5093 88.2359 19.4903 88.217C19.4714 88.1981 19.449 88.1831 19.4243 88.1729C19.3996 88.1626 19.3731 88.1573 19.3463 88.1573H14.4588C14.4321 88.1573 14.4056 88.1626 14.3809 88.1729C14.3562 88.1831 14.3338 88.1981 14.3148 88.217C14.2959 88.2359 14.2809 88.2584 14.2707 88.2831C14.2605 88.3078 14.2552 88.3343 14.2552 88.361V89.3881H4.8875C4.24566 89.3881 3.61011 89.5145 3.01713 89.7601C2.42415 90.0057 1.88536 90.3657 1.43151 90.8196C0.977667 91.2734 0.617657 91.8122 0.372038 92.4052C0.126418 92.9982 -3.79703e-07 93.6337 0 94.2756V96.4856C3.06738e-06 97.7818 0.514936 99.025 1.43152 99.9416C2.3481 100.858 3.59125 101.373 4.8875 101.373H167.397C168.039 101.373 168.674 101.247 169.267 101.001C169.86 100.755 170.399 100.395 170.853 99.9416C171.307 99.4877 171.667 98.9489 171.912 98.356C172.158 97.763 172.284 97.1274 172.284 96.4856V94.2756C172.284 93.6337 172.158 92.9982 171.912 92.4052C171.667 91.8122 171.307 91.2734 170.853 90.8196C170.399 90.3657 169.86 90.0057 169.267 89.7601C168.674 89.5145 168.039 89.3881 167.397 89.3881Z" fill="#3F3D56"/>
<path d="M122.841 62.9477H46.5085C46.2786 62.9474 46.0581 62.856 45.8955 62.6933C45.7328 62.5307 45.6414 62.3102 45.6411 62.0803V30.2749C45.6414 30.0449 45.7328 29.8244 45.8955 29.6618C46.0581 29.4992 46.2786 29.4077 46.5085 29.4075H122.841C123.071 29.4077 123.292 29.4992 123.455 29.6618C123.617 29.8244 123.709 30.0449 123.709 30.2749V62.0803C123.709 62.3102 123.617 62.5307 123.455 62.6933C123.292 62.856 123.071 62.9474 122.841 62.9477ZM46.5085 29.9858C46.4319 29.9858 46.3584 30.0163 46.3042 30.0705C46.25 30.1247 46.2195 30.1982 46.2194 30.2749V62.0803C46.2195 62.1569 46.25 62.2304 46.3042 62.2846C46.3584 62.3388 46.4319 62.3693 46.5085 62.3694H122.841C122.918 62.3693 122.992 62.3388 123.046 62.2846C123.1 62.2304 123.13 62.1569 123.131 62.0803V30.2749C123.13 30.1982 123.1 30.1247 123.046 30.0705C122.992 30.0163 122.918 29.9858 122.841 29.9858H46.5085Z" fill="#3F3D56"/>
<path d="M55.1828 47.9125H51.7131C51.4831 47.9122 51.2627 47.8207 51.1 47.6581C50.9374 47.4955 50.846 47.275 50.8457 47.045V43.5754C50.846 43.3454 50.9374 43.1249 51.1 42.9623C51.2627 42.7997 51.4831 42.7082 51.7131 42.7079H55.1828C55.4128 42.7082 55.6333 42.7997 55.7959 42.9623C55.9585 43.1249 56.05 43.3454 56.0502 43.5754V47.045C56.05 47.275 55.9585 47.4955 55.7959 47.6581C55.6333 47.8207 55.4128 47.9122 55.1828 47.9125ZM51.7131 43.2862C51.6365 43.2863 51.563 43.3168 51.5088 43.371C51.4546 43.4252 51.4241 43.4987 51.424 43.5754V47.045C51.4241 47.1217 51.4546 47.1952 51.5088 47.2494C51.563 47.3036 51.6365 47.3341 51.7131 47.3342H55.1828C55.2595 47.3341 55.3329 47.3036 55.3871 47.2494C55.4413 47.1952 55.4718 47.1217 55.4719 47.045V43.5754C55.4718 43.4987 55.4413 43.4252 55.3871 43.371C55.3329 43.3168 55.2595 43.2863 55.1828 43.2862H51.7131Z" fill="#3F3D56"/>
<path d="M117.059 47.3341H51.1348V47.9124H117.059V47.3341Z" fill="#3F3D56"/>
<path d="M288.519 77.983H76.5791V78.5613H288.519V77.983Z" fill="#3F3D56"/>
<path d="M76.5792 82.031C78.8148 82.031 80.6272 80.2186 80.6272 77.983C80.6272 75.7474 78.8148 73.9351 76.5792 73.9351C74.3436 73.9351 72.5312 75.7474 72.5312 77.983C72.5312 80.2186 74.3436 82.031 76.5792 82.031Z" fill="#3F3D56"/>
<path d="M288.519 81.7418C290.275 81.7418 291.699 80.3178 291.699 78.5613C291.699 76.8047 290.275 75.3807 288.519 75.3807C286.762 75.3807 285.338 76.8047 285.338 78.5613C285.338 80.3178 286.762 81.7418 288.519 81.7418Z" fill="#3F3D56"/>
<path d="M93.0599 145.642C94.8165 145.642 96.2405 144.218 96.2405 142.461C96.2405 140.705 94.8165 139.281 93.0599 139.281C91.3034 139.281 89.8794 140.705 89.8794 142.461C89.8794 144.218 91.3034 145.642 93.0599 145.642Z" fill="#3F3D56"/>
<path d="M304.132 145.642C305.889 145.642 307.313 144.218 307.313 142.461C307.313 140.705 305.889 139.281 304.132 139.281C302.376 139.281 300.952 140.705 300.952 142.461C300.952 144.218 302.376 145.642 304.132 145.642Z" fill="#3F3D56"/>
</svg>
