<svg width="19" height="26" viewBox="0 0 19 26" fill="current" xmlns="http://www.w3.org/2000/svg">
<path d="M18.8271 7.38141C18.8271 5.22321 17.0791 3.47516 14.9209 3.47516C12.7627 3.47516 11.0146 5.22321 11.0146 7.38141C11.0146 9.15875 12.2012 10.6578 13.8223 11.1314C13.793 11.9175 13.6172 12.523 13.2852 12.9332C12.5332 13.8707 10.8779 14.0269 9.125 14.188C7.74805 14.315 6.32227 14.4517 5.15527 15.0132V7.98199C6.74219 7.48395 7.88965 6.00446 7.88965 4.25641C7.88965 2.09821 6.1416 0.350159 3.9834 0.350159C1.8252 0.350159 0.0771484 2.09821 0.0771484 4.25641C0.0771484 6.00446 1.22461 7.48395 2.81152 7.98199V17.7134C1.22461 18.2164 0.0771484 19.6959 0.0771484 21.4439C0.0771484 23.6021 1.8252 25.3502 3.9834 25.3502C6.1416 25.3502 7.88965 23.6021 7.88965 21.4439C7.88965 19.7838 6.85449 18.3629 5.38965 17.8013C5.54102 17.5474 5.77051 17.3228 6.11719 17.147C6.9082 16.7466 8.08984 16.6392 9.34473 16.522C11.4053 16.3316 13.7393 16.1119 15.1162 14.4029C15.7998 13.5533 16.1465 12.4595 16.1709 11.0875C17.7139 10.5601 18.8271 9.10016 18.8271 7.38141ZM3.9834 3.47516C4.41309 3.47516 4.76465 3.82672 4.76465 4.25641C4.76465 4.6861 4.41309 5.03766 3.9834 5.03766C3.55371 5.03766 3.20215 4.6861 3.20215 4.25641C3.20215 3.82672 3.55371 3.47516 3.9834 3.47516ZM3.9834 22.2252C3.55371 22.2252 3.20215 21.8736 3.20215 21.4439C3.20215 21.0142 3.55371 20.6627 3.9834 20.6627C4.41309 20.6627 4.76465 21.0142 4.76465 21.4439C4.76465 21.8736 4.41309 22.2252 3.9834 22.2252ZM14.9209 6.60016C15.3506 6.60016 15.7021 6.95172 15.7021 7.38141C15.7021 7.8111 15.3506 8.16266 14.9209 8.16266C14.4912 8.16266 14.1396 7.8111 14.1396 7.38141C14.1396 6.95172 14.4912 6.60016 14.9209 6.60016Z" fill="current"/>
</svg>
