<svg width="25" height="24" viewBox="0 0 25 24" fill="current" xmlns="http://www.w3.org/2000/svg">
<path fill-rule="evenodd" clip-rule="evenodd" d="M8.18213 5H6.18213C5.62984 5 5.18213 5.44772 5.18213 6V8C5.18213 8.55228 5.62984 9 6.18213 9H8.18213C8.73441 9 9.18213 8.55228 9.18213 8V6C9.18213 5.44772 8.73441 5 8.18213 5ZM6.18213 3C4.52527 3 3.18213 4.34315 3.18213 6V8C3.18213 9.65685 4.52527 11 6.18213 11H8.18213C9.83898 11 11.1821 9.65685 11.1821 8V6C11.1821 4.34315 9.83898 3 8.18213 3H6.18213Z" fill="current"/>
<path fill-rule="evenodd" clip-rule="evenodd" d="M8.18213 15H6.18213C5.62984 15 5.18213 15.4477 5.18213 16V18C5.18213 18.5523 5.62984 19 6.18213 19H8.18213C8.73441 19 9.18213 18.5523 9.18213 18V16C9.18213 15.4477 8.73441 15 8.18213 15ZM6.18213 13C4.52527 13 3.18213 14.3431 3.18213 16V18C3.18213 19.6569 4.52527 21 6.18213 21H8.18213C9.83898 21 11.1821 19.6569 11.1821 18V16C11.1821 14.3431 9.83898 13 8.18213 13H6.18213Z" fill="current"/>
<path fill-rule="evenodd" clip-rule="evenodd" d="M18.1821 5H16.1821C15.6298 5 15.1821 5.44772 15.1821 6V8C15.1821 8.55228 15.6298 9 16.1821 9H18.1821C18.7344 9 19.1821 8.55228 19.1821 8V6C19.1821 5.44772 18.7344 5 18.1821 5ZM16.1821 3C14.5253 3 13.1821 4.34315 13.1821 6V8C13.1821 9.65685 14.5253 11 16.1821 11H18.1821C19.839 11 21.1821 9.65685 21.1821 8V6C21.1821 4.34315 19.839 3 18.1821 3H16.1821Z" fill="current"/>
<path fill-rule="evenodd" clip-rule="evenodd" d="M18.1821 15H16.1821C15.6298 15 15.1821 15.4477 15.1821 16V18C15.1821 18.5523 15.6298 19 16.1821 19H18.1821C18.7344 19 19.1821 18.5523 19.1821 18V16C19.1821 15.4477 18.7344 15 18.1821 15ZM16.1821 13C14.5253 13 13.1821 14.3431 13.1821 16V18C13.1821 19.6569 14.5253 21 16.1821 21H18.1821C19.839 21 21.1821 19.6569 21.1821 18V16C21.1821 14.3431 19.839 13 18.1821 13H16.1821Z" fill="current"/>
</svg>
