<svg width="107" height="188" viewBox="0 0 107 188" fill="none" xmlns="http://www.w3.org/2000/svg">
<path d="M83.107 77.1746C83.107 78.4019 82.8854 79.4625 82.4422 80.3564C81.999 81.2504 81.3911 81.9398 80.6184 82.4246C79.8456 82.9095 78.963 83.1519 77.9706 83.1519C76.9782 83.1519 76.0956 82.9095 75.3229 82.4246C74.5502 81.9398 73.9422 81.2504 73.499 80.3564C73.0559 79.4625 72.8343 78.4019 72.8343 77.1746C72.8343 75.9473 73.0559 74.8867 73.499 73.9928C73.9422 73.0989 74.5502 72.4095 75.3229 71.9246C76.0956 71.4398 76.9782 71.1973 77.9706 71.1973C78.963 71.1973 79.8456 71.4398 80.6184 71.9246C81.3911 72.4095 81.999 73.0989 82.4422 73.9928C82.8854 74.8867 83.107 75.9473 83.107 77.1746ZM81.7434 77.1746C81.7434 76.167 81.5748 75.3167 81.2377 74.6235C80.9043 73.9303 80.4517 73.4057 79.8797 73.0496C79.3115 72.6936 78.6752 72.5155 77.9706 72.5155C77.2661 72.5155 76.6278 72.6936 76.0559 73.0496C75.4877 73.4057 75.035 73.9303 74.6979 74.6235C74.3646 75.3167 74.1979 76.167 74.1979 77.1746C74.1979 78.1822 74.3646 79.0326 74.6979 79.7258C75.035 80.4189 75.4877 80.9436 76.0559 81.2996C76.6278 81.6557 77.2661 81.8337 77.9706 81.8337C78.6752 81.8337 79.3115 81.6557 79.8797 81.2996C80.4517 80.9436 80.9043 80.4189 81.2377 79.7258C81.5748 79.0326 81.7434 78.1822 81.7434 77.1746ZM93.1127 71.3564H94.5218V79.061C94.5218 79.8564 94.3343 80.5667 93.9593 81.1917C93.588 81.8129 93.0634 82.3034 92.3854 82.6633C91.7074 83.0193 90.9119 83.1973 89.999 83.1973C89.0862 83.1973 88.2907 83.0193 87.6127 82.6633C86.9346 82.3034 86.4081 81.8129 86.0331 81.1917C85.6619 80.5667 85.4763 79.8564 85.4763 79.061V71.3564H86.8854V78.9473C86.8854 79.5155 87.0104 80.0212 87.2604 80.4644C87.5104 80.9038 87.8665 81.2504 88.3286 81.5042C88.7945 81.7542 89.3513 81.8792 89.999 81.8792C90.6468 81.8792 91.2036 81.7542 91.6695 81.5042C92.1354 81.2504 92.4915 80.9038 92.7377 80.4644C92.9877 80.0212 93.1127 79.5155 93.1127 78.9473V71.3564ZM96.6993 72.6064V71.3564H105.427V72.6064H101.767V82.9928H100.358V72.6064H96.6993Z" fill="#666666"/>
<path d="M5.28169 71.3564V82.9928H3.8726V71.3564H5.28169ZM17.3342 71.3564V82.9928H15.9706L9.6297 73.8564H9.51606V82.9928H8.10697V71.3564H9.47061L15.8342 80.5155H15.9479V71.3564H17.3342Z" fill="#666666"/>
<line x1="47.8417" y1="0.426221" x2="48.856" y2="187.074" stroke="#D6D6D6" stroke-width="2"/>
<path d="M98.895 113.302L99.979 114.386C100.438 114.845 100.438 115.587 99.979 116.041L90.4917 125.533C90.0327 125.992 89.2905 125.992 88.8364 125.533L79.3442 116.041C78.8853 115.582 78.8853 114.84 79.3442 114.386L80.4282 113.302C80.8921 112.838 81.6489 112.848 82.103 113.321L87.7085 119.205V105.172C87.7085 104.522 88.231 104 88.8804 104H90.4429C91.0923 104 91.6147 104.522 91.6147 105.172V119.205L97.2202 113.321C97.6743 112.843 98.4312 112.833 98.895 113.302Z" fill="#666666"/>
<path d="M98.895 113.302L99.979 114.386C100.438 114.845 100.438 115.587 99.979 116.041L90.4917 125.533C90.0327 125.992 89.2905 125.992 88.8364 125.533L79.3442 116.041C78.8853 115.582 78.8853 114.84 79.3442 114.386L80.4282 113.302C80.8921 112.838 81.6489 112.848 82.103 113.321L87.7085 119.205V105.172C87.7085 104.522 88.231 104 88.8804 104H90.4429C91.0923 104 91.6147 104.522 91.6147 105.172V119.205L97.2202 113.321C97.6743 112.843 98.4312 112.833 98.895 113.302Z" fill="#666666"/>
<path d="M1.42822 115.576L0.344236 114.492C-0.114748 114.033 -0.114748 113.291 0.344236 112.836L9.83154 103.344C10.2905 102.885 11.0327 102.885 11.4868 103.344L20.979 112.836C21.438 113.295 21.438 114.038 20.979 114.492L19.895 115.576C19.4312 116.04 18.6743 116.03 18.2202 115.556L12.6147 109.672L12.6147 123.706C12.6147 124.355 12.0923 124.877 11.4429 124.877H9.88037C9.23096 124.877 8.7085 124.355 8.7085 123.706L8.7085 109.672L3.10303 115.556C2.64892 116.035 1.89209 116.044 1.42822 115.576Z" fill="#666666"/>
<path d="M1.42822 115.576L0.344236 114.492C-0.114748 114.033 -0.114748 113.291 0.344236 112.836L9.83154 103.344C10.2905 102.885 11.0327 102.885 11.4868 103.344L20.979 112.836C21.438 113.295 21.438 114.038 20.979 114.492L19.895 115.576C19.4312 116.04 18.6743 116.03 18.2202 115.556L12.6147 109.672L12.6147 123.706C12.6147 124.355 12.0923 124.877 11.4429 124.877H9.88037C9.23096 124.877 8.7085 124.355 8.7085 123.706L8.7085 109.672L3.10303 115.556C2.64892 116.035 1.89209 116.044 1.42822 115.576Z" fill="#666666"/>
</svg>
