<svg width="39" height="33" viewBox="0 0 39 33" fill="none" xmlns="http://www.w3.org/2000/svg">
<path opacity="0.7" d="M12.9919 6.14301V31.6073C12.9919 31.9681 12.9017 32.2777 12.7189 32.5288C12.5385 32.7823 12.2728 32.9091 11.9243 32.9091C11.6781 32.9091 11.4392 32.8506 11.2052 32.736L1.08469 27.6777C0.779999 27.5339 0.521626 27.2901 0.312001 26.9513C0.104813 26.61 0 26.2736 0 25.9421V1.19446C0 0.904374 0.0731244 0.658167 0.216937 0.455837C0.363187 0.253507 0.572812 0.151123 0.848249 0.151123C1.05056 0.151123 1.36988 0.26082 1.80619 0.477776L12.9285 6.03575C12.9699 6.0772 12.9919 6.11376 12.9919 6.14301V6.14301Z" fill="#696CFF"/>
<path opacity="0.3" d="M14.3861 8.33698L26.0081 27.1342L14.3861 21.3617V8.33698ZM39 8.72701V31.6074C39 31.9681 38.8976 32.2631 38.6953 32.4874C38.493 32.7116 38.2175 32.8238 37.869 32.8238C37.5204 32.8238 37.1792 32.7287 36.8452 32.541L27.2464 27.7655L39 8.72701Z" fill="#696CFF"/>
<path opacity="0.7" d="M38.9342 6.12109C38.9342 6.16497 37.0744 9.19992 33.3523 15.2284C29.6303 21.2568 27.4511 24.7842 26.8125 25.8105L18.3251 12.0472L25.3768 0.606989C25.623 0.202329 26.0008 0 26.5078 0C26.7101 0 26.9003 0.0438799 27.0733 0.1292L38.8465 5.98945C38.905 6.02114 38.9342 6.06258 38.9342 6.12109V6.12109Z" fill="#696CFF"/>
</svg>
