<svg width="167" height="87" viewBox="0 0 167 87" fill="none" xmlns="http://www.w3.org/2000/svg">
<rect x="0.453125" y="0.820312" width="165.799" height="85.3813" rx="10" fill="#F5F5F9"/>
<path d="M81.6724 50.1818C80.8845 50.1818 80.1932 49.9943 79.5985 49.6193C79.0076 49.2443 78.5455 48.7197 78.2122 48.0455C77.8826 47.3712 77.7178 46.5833 77.7178 45.6818C77.7178 44.7727 77.8826 43.9792 78.2122 43.3011C78.5455 42.6231 79.0076 42.0966 79.5985 41.7216C80.1932 41.3466 80.8845 41.1591 81.6724 41.1591C82.4603 41.1591 83.1497 41.3466 83.7406 41.7216C84.3353 42.0966 84.7974 42.6231 85.1269 43.3011C85.4603 43.9792 85.6269 44.7727 85.6269 45.6818C85.6269 46.5833 85.4603 47.3712 85.1269 48.0455C84.7974 48.7197 84.3353 49.2443 83.7406 49.6193C83.1497 49.9943 82.4603 50.1818 81.6724 50.1818ZM81.6724 48.9773C82.2709 48.9773 82.7633 48.8239 83.1497 48.517C83.536 48.2102 83.822 47.8068 84.0076 47.3068C84.1932 46.8068 84.286 46.2652 84.286 45.6818C84.286 45.0985 84.1932 44.5549 84.0076 44.0511C83.822 43.5473 83.536 43.1402 83.1497 42.8295C82.7633 42.5189 82.2709 42.3636 81.6724 42.3636C81.0739 42.3636 80.5815 42.5189 80.1951 42.8295C79.8087 43.1402 79.5228 43.5473 79.3372 44.0511C79.1516 44.5549 79.0587 45.0985 79.0587 45.6818C79.0587 46.2652 79.1516 46.8068 79.3372 47.3068C79.5228 47.8068 79.8087 48.2102 80.1951 48.517C80.5815 48.8239 81.0739 48.9773 81.6724 48.9773ZM91.5602 41.2727V42.4091H86.8556V41.2727H91.5602ZM88.2647 50V40.0682C88.2647 39.5682 88.3821 39.1515 88.617 38.8182C88.8518 38.4848 89.1568 38.2348 89.5318 38.0682C89.9068 37.9015 90.3026 37.8182 90.7193 37.8182C91.0488 37.8182 91.3177 37.8447 91.5261 37.8977C91.7344 37.9508 91.8897 38 91.992 38.0455L91.6056 39.2045C91.5374 39.1818 91.4427 39.1534 91.3215 39.1193C91.2041 39.0852 91.0488 39.0682 90.8556 39.0682C90.4124 39.0682 90.0924 39.1799 89.8954 39.4034C89.7022 39.6269 89.6056 39.9545 89.6056 40.3864V50H88.2647ZM97.3258 41.2727V42.4091H92.6212V41.2727H97.3258ZM94.0303 50V40.0682C94.0303 39.5682 94.1478 39.1515 94.3826 38.8182C94.6175 38.4848 94.9224 38.2348 95.2974 38.0682C95.6724 37.9015 96.0682 37.8182 96.4849 37.8182C96.8144 37.8182 97.0834 37.8447 97.2917 37.8977C97.5 37.9508 97.6553 38 97.7576 38.0455L97.3712 39.2045C97.3031 39.1818 97.2084 39.1534 97.0872 39.1193C96.9697 39.0852 96.8144 39.0682 96.6212 39.0682C96.1781 39.0682 95.858 39.1799 95.661 39.4034C95.4678 39.6269 95.3712 39.9545 95.3712 40.3864V50H94.0303ZM99.2051 50V41.2727H100.546V50H99.2051ZM99.8869 39.8182C99.6255 39.8182 99.4001 39.7292 99.2107 39.5511C99.0251 39.3731 98.9323 39.1591 98.9323 38.9091C98.9323 38.6591 99.0251 38.4451 99.2107 38.267C99.4001 38.089 99.6255 38 99.8869 38C100.148 38 100.372 38.089 100.557 38.267C100.747 38.4451 100.841 38.6591 100.841 38.9091C100.841 39.1591 100.747 39.3731 100.557 39.5511C100.372 39.7292 100.148 39.8182 99.8869 39.8182ZM106.547 50.1818C105.729 50.1818 105.025 49.9886 104.434 49.6023C103.843 49.2159 103.388 48.6837 103.07 48.0057C102.752 47.3277 102.593 46.553 102.593 45.6818C102.593 44.7955 102.756 44.0133 103.081 43.3352C103.411 42.6534 103.869 42.1212 104.456 41.7386C105.047 41.3523 105.737 41.1591 106.525 41.1591C107.138 41.1591 107.691 41.2727 108.184 41.5C108.676 41.7273 109.08 42.0455 109.394 42.4545C109.708 42.8636 109.903 43.3409 109.979 43.8864H108.638C108.536 43.4886 108.309 43.1364 107.956 42.8295C107.608 42.5189 107.138 42.3636 106.547 42.3636C106.025 42.3636 105.566 42.5 105.172 42.7727C104.782 43.0417 104.477 43.4223 104.258 43.9148C104.042 44.4034 103.934 44.9773 103.934 45.6364C103.934 46.3106 104.04 46.8977 104.252 47.3977C104.468 47.8977 104.771 48.286 105.161 48.5625C105.555 48.839 106.017 48.9773 106.547 48.9773C106.896 48.9773 107.212 48.9167 107.496 48.7955C107.78 48.6742 108.021 48.5 108.218 48.2727C108.415 48.0455 108.555 47.7727 108.638 47.4545H109.979C109.903 47.9697 109.716 48.4337 109.417 48.8466C109.121 49.2557 108.729 49.5814 108.241 49.8239C107.756 50.0625 107.191 50.1818 106.547 50.1818ZM115.599 50.1818C114.758 50.1818 114.032 49.9962 113.422 49.625C112.816 49.25 112.349 48.7273 112.019 48.0568C111.693 47.3826 111.53 46.5985 111.53 45.7045C111.53 44.8106 111.693 44.0227 112.019 43.3409C112.349 42.6553 112.807 42.1212 113.394 41.7386C113.985 41.3523 114.674 41.1591 115.462 41.1591C115.917 41.1591 116.366 41.2348 116.809 41.3864C117.252 41.5379 117.655 41.7841 118.019 42.125C118.383 42.4621 118.672 42.9091 118.888 43.4659C119.104 44.0227 119.212 44.7083 119.212 45.5227V46.0909H112.485V44.9318H117.849C117.849 44.4394 117.75 44 117.553 43.6136C117.36 43.2273 117.083 42.9223 116.724 42.6989C116.367 42.4754 115.947 42.3636 115.462 42.3636C114.928 42.3636 114.466 42.4962 114.076 42.7614C113.689 43.0227 113.392 43.3636 113.184 43.7841C112.975 44.2045 112.871 44.6553 112.871 45.1364V45.9091C112.871 46.5682 112.985 47.1269 113.212 47.5852C113.443 48.0398 113.763 48.3864 114.172 48.625C114.581 48.8598 115.057 48.9773 115.599 48.9773C115.951 48.9773 116.269 48.928 116.553 48.8295C116.841 48.7273 117.089 48.5758 117.297 48.375C117.506 48.1705 117.667 47.9167 117.78 47.6136L119.076 47.9773C118.939 48.4167 118.71 48.803 118.388 49.1364C118.066 49.4659 117.669 49.7235 117.195 49.9091C116.722 50.0909 116.189 50.1818 115.599 50.1818Z" fill="#666666"/>
<path d="M43.7143 44C46.2013 44 48.2143 41.9871 48.2143 39.5C48.2143 37.0129 46.2013 35 43.7143 35C41.2272 35 39.2143 37.0129 39.2143 39.5C39.2143 41.9871 41.2272 44 43.7143 44ZM46.8 45.2857C46.5805 45.2857 46.3648 45.3375 46.1626 45.4229C45.4078 45.7417 44.5844 45.9286 43.7143 45.9286C42.8438 45.9286 42.0232 45.7416 41.2661 45.4225C41.0639 45.3372 40.8481 45.2857 40.6286 45.2857C38.0732 45.2857 36 47.3589 36 49.9143V51.0714C36 52.1362 36.8638 53 37.9286 53H49.5C50.5647 53 51.4286 52.1362 51.4286 51.0714V49.9143C51.4286 47.3589 49.3554 45.2857 46.8 45.2857ZM55.2857 44C57.4152 44 59.1428 42.2723 59.1428 40.1429C59.1428 38.0134 57.4152 36.2857 55.2857 36.2857C53.1562 36.2857 51.4286 38.0134 51.4286 40.1429C51.4286 42.2723 53.1562 44 55.2857 44ZM57.2143 45.2857C57.1132 45.2857 57.013 45.3031 56.9168 45.334C56.4012 45.4997 55.8586 45.6071 55.2857 45.6071C54.7128 45.6071 54.1702 45.4997 53.6546 45.334C53.5584 45.3031 53.4582 45.2857 53.3571 45.2857C52.1549 45.2857 51.928 46.7622 52.3486 47.8884C52.5843 48.5195 52.7143 49.2012 52.7143 49.9143V51.4571C52.7143 51.5978 52.8079 51.7143 52.9486 51.7143H59.7857C60.8504 51.7143 61.7143 50.8504 61.7143 49.7857C61.7143 47.2987 59.7013 45.2857 57.2143 45.2857Z" fill="#666666"/>
</svg>
