<svg width="17" height="18" viewBox="0 0 17 18" fill="none" xmlns="http://www.w3.org/2000/svg">
<path d="M14.3438 9.00003H6.10938V5.57679C6.10938 4.26195 7.16191 3.16956 8.47676 3.15628C9.80488 3.143 10.8906 4.2221 10.8906 5.54691V6.07816C10.8906 6.51976 11.2459 6.87503 11.6875 6.87503H12.75C13.1916 6.87503 13.5469 6.51976 13.5469 6.07816V5.54691C13.5469 2.75785 11.2725 0.490072 8.4834 0.500033C5.69434 0.509994 3.45312 2.80765 3.45312 5.59671V9.00003H2.65625C1.77637 9.00003 1.0625 9.7139 1.0625 10.5938V15.9063C1.0625 16.7862 1.77637 17.5 2.65625 17.5H14.3438C15.2236 17.5 15.9375 16.7862 15.9375 15.9063V10.5938C15.9375 9.7139 15.2236 9.00003 14.3438 9.00003ZM9.82812 14.0469C9.82812 14.7807 9.23379 15.375 8.5 15.375C7.76621 15.375 7.17188 14.7807 7.17188 14.0469V12.4532C7.17188 11.7194 7.76621 11.125 8.5 11.125C9.23379 11.125 9.82812 11.7194 9.82812 12.4532V14.0469Z" fill="white"/>
</svg>
