<svg width="73" height="73" viewBox="0 0 73 73" fill="none" xmlns="http://www.w3.org/2000/svg">
<path d="M34.0632 6.11297C29.4383 6.41952 24.9474 7.79352 20.9427 10.1272C16.938 12.4608 13.5286 15.6907 10.9818 19.5633C8.43502 23.4359 6.8202 27.846 6.26404 32.4475C5.70788 37.0491 6.2255 41.7169 7.77629 46.0848C9.32708 50.4526 11.8689 54.4018 15.2022 57.6224C18.5356 60.8429 22.5698 63.2473 26.9885 64.6469C31.4071 66.0465 36.09 66.4032 40.6697 65.689C45.2493 64.9749 49.6012 63.2093 53.3839 60.5308L44.9619 48.6369C43.0168 50.0142 40.779 50.9221 38.4241 51.2893C36.0692 51.6566 33.6613 51.4731 31.3892 50.7535C29.1171 50.0338 27.0426 48.7974 25.3286 47.1414C23.6145 45.4853 22.3075 43.4546 21.5101 41.2086C20.7127 38.9626 20.4465 36.5624 20.7325 34.1963C21.0185 31.8301 21.8488 29.5624 23.1584 27.5711C24.468 25.5798 26.2211 23.9189 28.2804 22.7189C30.3396 21.519 32.6489 20.8124 35.027 20.6548L34.0632 6.11297Z" fill="#F2F6FC"/>
<path d="M13.7331 56.0991C17.9023 60.7388 23.4142 63.9635 29.5016 65.3245C35.5891 66.6855 41.9494 66.1151 47.6976 63.6927C53.4458 61.2703 58.2959 57.1164 61.5732 51.8089C64.8504 46.5015 66.3917 40.3044 65.9827 34.0801C65.5737 27.8558 63.2346 21.9138 59.291 17.0808C55.3474 12.2478 49.9954 8.76433 43.9796 7.115C37.9639 5.46566 31.5836 5.73252 25.7266 7.87844C19.8696 10.0244 14.8272 13.9426 11.3009 19.088L23.3225 27.3267C25.1357 24.6809 27.7286 22.6661 30.7403 21.5626C33.752 20.4592 37.0328 20.322 40.1262 21.1701C43.2195 22.0182 45.9716 23.8094 47.9994 26.2946C50.0273 28.7797 51.23 31.8352 51.4403 35.0358C51.6507 38.2364 50.8581 41.4229 49.1729 44.1521C47.4877 46.8812 44.9937 49.0172 42.038 50.2628C39.0822 51.5084 35.8117 51.8017 32.6815 51.1019C29.5512 50.402 26.717 48.7439 24.5731 46.3581L13.7331 56.0991Z" fill="#8E90FF"/>
</svg>
